<svg width="2297" height="2217" viewBox="0 0 2297 2217" fill="none" xmlns="http://www.w3.org/2000/svg">
<rect width="2297" height="2217" fill="white"/>
<path d="M212.339 483.953H201V414.64H212.339V367.312H201V318.64H212.339V271.312H201V222.64H212.339V175.312H201V106H212.339H1134.54H1145.88V175.312H1134.54V222.64H1145.88V271.312H1134.54V318.64H1145.88V367.312H1134.54V414.64H1145.88V483.953H1134.54H212.339Z" stroke="#FF0000" stroke-width="0.96" stroke-linecap="round" stroke-linejoin="round"/>
<path d="M265.777 461.275H313.105V472.614H265.777V461.275Z" stroke="black" stroke-width="0.96" stroke-linecap="round" stroke-linejoin="round"/>
<path d="M361.777 461.275H409.105V472.614H361.777V461.275Z" stroke="black" stroke-width="0.96" stroke-linecap="round" stroke-linejoin="round"/>
<path d="M457.777 461.275H505.105V472.614H457.777V461.275Z" stroke="black" stroke-width="0.96" stroke-linecap="round" stroke-linejoin="round"/>
<path d="M553.777 461.275H601.105V472.614H553.777V461.275Z" stroke="black" stroke-width="0.96" stroke-linecap="round" stroke-linejoin="round"/>
<path d="M649.777 461.275H697.105V472.614H649.777V461.275Z" stroke="black" stroke-width="0.96" stroke-linecap="round" stroke-linejoin="round"/>
<path d="M745.777 461.275H793.105V472.614H745.777V461.275Z" stroke="black" stroke-width="0.96" stroke-linecap="round" stroke-linejoin="round"/>
<path d="M841.777 461.275H889.105V472.614H841.777V461.275Z" stroke="black" stroke-width="0.96" stroke-linecap="round" stroke-linejoin="round"/>
<path d="M937.777 461.275H985.105V472.614H937.777V461.275Z" stroke="black" stroke-width="0.96" stroke-linecap="round" stroke-linejoin="round"/>
<path d="M1033.78 461.275H1081.11V472.614H1033.78V461.275Z" stroke="black" stroke-width="0.96" stroke-linecap="round" stroke-linejoin="round"/>
<path d="M265.777 201.275H313.105V212.614H265.777V201.275Z" stroke="black" stroke-width="0.96" stroke-linecap="round" stroke-linejoin="round"/>
<path d="M361.777 201.275H409.105V212.614H361.777V201.275Z" stroke="black" stroke-width="0.96" stroke-linecap="round" stroke-linejoin="round"/>
<path d="M457.777 201.275H505.105V212.614H457.777V201.275Z" stroke="black" stroke-width="0.96" stroke-linecap="round" stroke-linejoin="round"/>
<path d="M553.777 201.275H601.105V212.614H553.777V201.275Z" stroke="black" stroke-width="0.96" stroke-linecap="round" stroke-linejoin="round"/>
<path d="M649.777 201.275H697.105V212.614H649.777V201.275Z" stroke="black" stroke-width="0.96" stroke-linecap="round" stroke-linejoin="round"/>
<path d="M745.777 201.275H793.105V212.614H745.777V201.275Z" stroke="black" stroke-width="0.96" stroke-linecap="round" stroke-linejoin="round"/>
<path d="M841.777 201.275H889.105V212.614H841.777V201.275Z" stroke="black" stroke-width="0.96" stroke-linecap="round" stroke-linejoin="round"/>
<path d="M937.777 201.275H985.105V212.614H937.777V201.275Z" stroke="black" stroke-width="0.96" stroke-linecap="round" stroke-linejoin="round"/>
<path d="M1033.78 201.275H1081.11V212.614H1033.78V201.275Z" stroke="black" stroke-width="0.96" stroke-linecap="round" stroke-linejoin="round"/>
<path d="M265.777 584.275H313.105V595.614H265.777V584.275Z" stroke="black" stroke-width="0.96" stroke-linecap="round" stroke-linejoin="round"/>
<path d="M361.777 584.275H409.105V595.614H361.777V584.275Z" stroke="black" stroke-width="0.96" stroke-linecap="round" stroke-linejoin="round"/>
<path d="M457.777 584.275H505.105V595.614H457.777V584.275Z" stroke="black" stroke-width="0.96" stroke-linecap="round" stroke-linejoin="round"/>
<path d="M553.777 584.275H601.105V595.614H553.777V584.275Z" stroke="black" stroke-width="0.96" stroke-linecap="round" stroke-linejoin="round"/>
<path d="M649.777 584.275H697.105V595.614H649.777V584.275Z" stroke="black" stroke-width="0.96" stroke-linecap="round" stroke-linejoin="round"/>
<path d="M745.777 584.275H793.105V595.614H745.777V584.275Z" stroke="black" stroke-width="0.96" stroke-linecap="round" stroke-linejoin="round"/>
<path d="M841.777 584.275H889.105V595.614H841.777V584.275Z" stroke="black" stroke-width="0.96" stroke-linecap="round" stroke-linejoin="round"/>
<path d="M937.777 584.275H985.105V595.614H937.777V584.275Z" stroke="black" stroke-width="0.96" stroke-linecap="round" stroke-linejoin="round"/>
<path d="M1033.78 584.275H1081.11V595.614H1033.78V584.275Z" stroke="black" stroke-width="0.96" stroke-linecap="round" stroke-linejoin="round"/>
<path d="M1744.07 483.953H1162.02V415.312H1150.68V366.64H1162.02V319.312H1150.68V270.64H1162.02V223.312H1150.68V174.64H1162.02V106H1744.07V174.64H1755.41V223.312H1744.07V270.64H1755.41V319.312H1744.07V366.64H1755.41V415.312H1744.07V483.953Z" stroke="#FF0000" stroke-width="0.96" stroke-linecap="round" stroke-linejoin="round"/>
<path d="M1237.38 461.275H1284.71V472.614H1237.38V461.275Z" stroke="black" stroke-width="0.96" stroke-linecap="round" stroke-linejoin="round"/>
<path d="M1333.38 461.275H1380.71V472.614H1333.38V461.275Z" stroke="black" stroke-width="0.96" stroke-linecap="round" stroke-linejoin="round"/>
<path d="M1429.38 461.275H1476.71V472.614H1429.38V461.275Z" stroke="black" stroke-width="0.96" stroke-linecap="round" stroke-linejoin="round"/>
<path d="M1525.38 461.275H1572.71V472.614H1525.38V461.275Z" stroke="black" stroke-width="0.96" stroke-linecap="round" stroke-linejoin="round"/>
<path d="M1621.38 461.275H1668.71V472.614H1621.38V461.275Z" stroke="black" stroke-width="0.96" stroke-linecap="round" stroke-linejoin="round"/>
<path d="M1237.38 201.275H1284.71V212.614H1237.38V201.275Z" stroke="black" stroke-width="0.96" stroke-linecap="round" stroke-linejoin="round"/>
<path d="M1333.38 201.275H1380.71V212.614H1333.38V201.275Z" stroke="black" stroke-width="0.96" stroke-linecap="round" stroke-linejoin="round"/>
<path d="M1429.38 201.275H1476.71V212.614H1429.38V201.275Z" stroke="black" stroke-width="0.96" stroke-linecap="round" stroke-linejoin="round"/>
<path d="M1525.38 201.275H1572.71V212.614H1525.38V201.275Z" stroke="black" stroke-width="0.96" stroke-linecap="round" stroke-linejoin="round"/>
<path d="M1621.38 201.275H1668.71V212.614H1621.38V201.275Z" stroke="black" stroke-width="0.96" stroke-linecap="round" stroke-linejoin="round"/>
<path d="M212.339 866.706H201V797.393H212.339V750.065H201V701.393H212.339V654.065H201V605.393H212.339V558.065H201V488.753H212.339H1134.54H1145.88V558.065H1134.54V605.393H1145.88V654.065H1134.54V701.393H1145.88V750.065H1134.54V797.393H1145.88V866.706H1134.54H212.339Z" stroke="#FF0000" stroke-width="0.96" stroke-linecap="round" stroke-linejoin="round"/>
<path d="M265.777 844.028H313.105V855.367H265.777V844.028Z" stroke="black" stroke-width="0.96" stroke-linecap="round" stroke-linejoin="round"/>
<path d="M361.777 844.028H409.105V855.367H361.777V844.028Z" stroke="black" stroke-width="0.96" stroke-linecap="round" stroke-linejoin="round"/>
<path d="M457.777 844.028H505.105V855.367H457.777V844.028Z" stroke="black" stroke-width="0.96" stroke-linecap="round" stroke-linejoin="round"/>
<path d="M553.777 844.028H601.105V855.367H553.777V844.028Z" stroke="black" stroke-width="0.96" stroke-linecap="round" stroke-linejoin="round"/>
<path d="M649.777 844.028H697.105V855.367H649.777V844.028Z" stroke="black" stroke-width="0.96" stroke-linecap="round" stroke-linejoin="round"/>
<path d="M745.777 844.028H793.105V855.367H745.777V844.028Z" stroke="black" stroke-width="0.96" stroke-linecap="round" stroke-linejoin="round"/>
<path d="M841.777 844.028H889.105V855.367H841.777V844.028Z" stroke="black" stroke-width="0.96" stroke-linecap="round" stroke-linejoin="round"/>
<path d="M937.777 844.028H985.105V855.367H937.777V844.028Z" stroke="black" stroke-width="0.96" stroke-linecap="round" stroke-linejoin="round"/>
<path d="M1033.78 844.028H1081.11V855.367H1033.78V844.028Z" stroke="black" stroke-width="0.96" stroke-linecap="round" stroke-linejoin="round"/>
<path d="M1744.07 866.706H1162.02V798.065H1150.68V749.393H1162.02V702.065H1150.68V653.393H1162.02V606.065H1150.68V557.393H1162.02V488.753H1744.07V557.393H1755.41V606.065H1744.07V653.393H1755.41V702.065H1744.07V749.393H1755.41V798.065H1744.07V866.706Z" stroke="#FF0000" stroke-width="0.96" stroke-linecap="round" stroke-linejoin="round"/>
<path d="M1237.38 844.028H1284.71V855.367H1237.38V844.028Z" stroke="black" stroke-width="0.96" stroke-linecap="round" stroke-linejoin="round"/>
<path d="M1333.38 844.028H1380.71V855.367H1333.38V844.028Z" stroke="black" stroke-width="0.96" stroke-linecap="round" stroke-linejoin="round"/>
<path d="M1429.38 844.028H1476.71V855.367H1429.38V844.028Z" stroke="black" stroke-width="0.96" stroke-linecap="round" stroke-linejoin="round"/>
<path d="M1525.38 844.028H1572.71V855.367H1525.38V844.028Z" stroke="black" stroke-width="0.96" stroke-linecap="round" stroke-linejoin="round"/>
<path d="M1621.38 844.028H1668.71V855.367H1621.38V844.028Z" stroke="black" stroke-width="0.96" stroke-linecap="round" stroke-linejoin="round"/>
<path d="M1237.38 584.28H1284.71V595.619H1237.38V584.28Z" stroke="black" stroke-width="0.96" stroke-linecap="round" stroke-linejoin="round"/>
<path d="M1333.38 584.28H1380.71V595.618H1333.38V584.28Z" stroke="black" stroke-width="0.96" stroke-linecap="round" stroke-linejoin="round"/>
<path d="M1429.38 584.28H1476.71V595.618H1429.38V584.28Z" stroke="black" stroke-width="0.96" stroke-linecap="round" stroke-linejoin="round"/>
<path d="M1525.38 584.28H1572.71V595.618H1525.38V584.28Z" stroke="black" stroke-width="0.96" stroke-linecap="round" stroke-linejoin="round"/>
<path d="M1621.38 584.28H1668.71V595.618H1621.38V584.28Z" stroke="black" stroke-width="0.96" stroke-linecap="round" stroke-linejoin="round"/>
<path d="M212.339 1464.89V1390.2H201V1341.53H212.339V1294.2H201V1245.53H212.339V1198.2H201V1149.53H212.339V1102.2H201V1053.53H212.339V1006.2H201V957.532H212.339V882.844H265.105V871.505H313.777V882.844H361.105V871.505H409.777V882.844H457.105V871.505H505.777V882.844H553.105V871.505H601.777V882.844H649.105V871.505H697.777V882.844H745.105V871.505H793.777V882.844H841.105V871.505H889.777V882.844H937.105V871.505H985.777V882.844H1033.11V871.505H1081.78V882.844H1134.54V957.532H1145.88V1006.2H1134.54V1053.53H1145.88V1102.2H1134.54V1149.53H1145.88V1198.2H1134.54V1245.53H1145.88V1294.2H1134.54V1341.53H1145.88V1390.2H1134.54V1464.89H1081.78V1476.23H1033.11V1464.89H985.777V1476.23H937.105V1464.89H889.777V1476.23H841.105V1464.89H793.777V1476.23H745.105V1464.89H697.777V1476.23H649.105V1464.89H601.777V1476.23H553.105V1464.89H505.777V1476.23H457.105V1464.89H409.777V1476.23H361.105V1464.89H313.777V1476.23H265.105V1464.89H212.339Z" stroke="#FF0000" stroke-width="0.96" stroke-linecap="round" stroke-linejoin="round"/>
<path d="M673.441 1528.34H216.339V2110.39H673.441M673.441 1528.34H1130.54V2110.39H673.441M673.441 1528.34V2110.39" stroke="#FF0000" stroke-width="0.96" stroke-linecap="round" stroke-linejoin="round"/>
<path d="M1162.34 1464.89V1390.2H1151V1341.53H1162.34V1294.2H1151V1245.53H1162.34V1198.2H1151V1149.53H1162.34V1102.2H1151V1053.53H1162.34V1006.2H1151V957.532H1162.34V882.844H1215.1V871.505H1263.78V882.844H1311.1V871.505H1359.78V882.844H1407.1V871.505H1455.78V882.844H1503.1V871.505H1551.78V882.844H1599.1V871.505H1647.78V882.844H1695.1V871.505H1743.78V882.844H1791.1V871.505H1839.78V882.844H1887.11V871.505H1935.78V882.844H1983.11V871.505H2031.78V882.844H2084.54V957.532H2095.88V1006.2H2084.54V1053.53H2095.88V1102.2H2084.54V1149.53H2095.88V1198.2H2084.54V1245.53H2095.88V1294.2H2084.54V1341.53H2095.88V1390.2H2084.54V1464.89H2031.78V1476.23H1983.11V1464.89H1935.78V1476.23H1887.11V1464.89H1839.78V1476.23H1791.1V1464.89H1743.78V1476.23H1695.1V1464.89H1647.78V1476.23H1599.1V1464.89H1551.78V1476.23H1503.1V1464.89H1455.78V1476.23H1407.1V1464.89H1359.78V1476.23H1311.1V1464.89H1263.78V1476.23H1215.1V1464.89H1162.34Z" stroke="#FF0000" stroke-width="0.96" stroke-linecap="round" stroke-linejoin="round"/>
</svg>
