<svg width="947" height="599" viewBox="0 0 947 599" fill="none" xmlns="http://www.w3.org/2000/svg">
<rect width="947" height="599" fill="white"/>
<circle cx="183.307" cy="221.307" r="32.8271" stroke="black" stroke-width="0.96"/>
<circle cx="270.307" cy="131.307" r="32.8271" stroke="black" stroke-width="0.96"/>
<circle cx="217.173" cy="445.173" r="13.6932" stroke="black" stroke-width="0.96"/>
<circle cx="437.094" cy="107.094" r="23.6145" stroke="black" stroke-width="0.96"/>
<circle cx="511.094" cy="107.094" r="23.6145" stroke="black" stroke-width="0.96"/>
<circle cx="730.173" cy="445.173" r="13.6932" stroke="black" stroke-width="0.96"/>
<circle cx="473.346" cy="249.346" r="27.8665" stroke="black" stroke-width="0.96"/>
<circle cx="676.307" cy="131.307" r="32.8271" stroke="black" stroke-width="0.96"/>
<circle cx="763.307" cy="221.307" r="32.8271" stroke="black" stroke-width="0.96"/>
<path d="M859.05 40.6013C860.181 41.7711 861.253 42.996 862.266 44.2697C870.813 55.0082 874.522 68.5446 877.84 81.6223C879.648 88.7441 881.42 95.897 883.964 102.8C884.606 104.542 885.298 106.298 886.063 108.032C886.131 108.131 886.185 108.249 886.22 108.386C888.255 112.934 890.797 117.309 894.228 120.85C898.628 125.392 904.619 127.956 910.955 127.634C914.99 126.392 918.573 123.819 920.937 120.245C924.097 115.466 924.807 109.3 922.807 103.93C922.687 103.609 923.213 103.393 923.358 103.698C926.001 109.201 925.838 115.984 922.57 121.202C921.533 122.859 920.215 124.317 918.703 125.532C921.531 124.034 923.932 121.779 925.605 118.88C928.336 114.148 929.028 107.963 926.34 103.051C923.815 98.4388 918.627 95.4727 913.41 95.3848C908.312 95.2987 903.891 98.2113 901.965 102.95C900.159 107.393 900.568 112.877 904.043 116.393C904.438 116.793 904.472 117.258 904.296 117.634C906.077 117.346 907.822 116.758 909.354 115.84C913.996 113.059 916.245 107.132 915.066 101.912C914.953 101.413 915.669 101.218 915.826 101.701C916.653 104.24 916.649 106.842 916.049 109.429C914.991 113.997 911.441 118.15 906.925 119.526C902.383 120.908 896.769 119.545 893.418 116.161C893.003 115.742 893.554 114.983 894.056 115.33C896.358 116.917 898.947 117.869 901.758 117.847C901.8 117.846 901.841 117.846 901.882 117.845C897.582 115.497 894.713 111.238 892.796 106.808C890.355 101.17 888.952 95.099 887.774 89.0877C885.669 78.36 884.544 67.2986 880.528 57.0531C877.281 48.7704 872.054 40.6742 864.32 35.9859C860.473 33.6538 856.002 32.1282 851.465 32.4064C847.13 32.6715 842.956 34.944 841.615 39.3018C840.316 43.5196 841.668 48.2511 844.918 51.1951C844.988 51.2579 845.058 51.3201 845.129 51.3812C843.938 49.4244 843.376 47.0859 843.697 44.7198C844.394 39.5643 849.185 36.1245 854.213 36.1574C854.797 36.162 854.795 37.0593 854.213 37.064C849.972 37.104 846.082 40.7681 845.313 44.8984C844.738 47.9824 846.063 51.3122 848.38 53.4401C851.299 54.7421 854.647 55.0214 857.81 54.4499C859.199 54.1984 859.789 56.3284 858.396 56.5798C857.214 56.7942 856.006 56.8895 854.806 56.8627C850.058 56.7556 845.151 54.8874 842.127 51.0997C839.292 47.5488 838.296 42.4734 839.88 38.1634C841.547 33.6209 845.727 31.0209 850.383 30.4329C855.133 29.8332 859.947 31.1891 864.122 33.4184C867.9 35.4366 871.151 38.217 873.919 41.4486C877.33 43.6139 880.915 45.6531 884.67 47.0309C888.874 48.5743 893.561 49.3423 897.998 48.4714C901.726 47.7392 905.091 45.7421 907.535 42.8248C909.864 40.0448 911.05 36.4371 910.33 32.8262C909.69 29.6224 907.836 27.0331 905.206 25.236C903.249 24.8513 901.214 24.8621 899.227 25.3321C899.512 26.5055 899.615 27.7182 899.502 28.923C899.03 34.0085 895.305 38.7606 890.348 40.1419C884.967 41.6407 879.372 38.4899 876.7 33.8152C873.631 28.4394 875.353 22.1734 879.62 18.0003C883.524 14.1797 889.121 12.3726 894.514 12.5155C906.558 12.8327 915.517 22.6006 918.53 33.7213C922.303 47.6506 917.234 62.0589 911.179 74.5223M859.05 40.6013C858.301 39.8272 857.192 40.9746 857.882 41.7725M859.05 40.6013C859.971 41.6372 860.854 42.7041 861.698 43.8025C867.956 51.9388 872.008 61.6571 873.687 71.7722C873.621 71.5825 873.443 71.5375 873.295 71.5922L875.81 81.3083C872.379 67.2615 868.379 52.3203 857.882 41.7725M859.05 40.6013L857.882 41.7725M857.882 41.7725C864.608 49.5548 869.169 59.0595 871.219 69.1429C873.261 79.183 872.78 89.7443 869.571 99.4911C867.851 104.717 865.034 109.518 860.304 112.516C856.138 115.158 851.07 116.196 846.241 115.079C844.457 114.665 842.727 113.986 841.151 113.056C842.837 113.547 844.606 113.817 846.239 113.978C852.788 114.623 859.158 110.082 862.958 105.08C865.049 102.326 866.531 99.0668 867.043 95.6334C867.126 95.0826 866.295 94.8326 866.194 95.398C865.197 100.947 861.51 105.391 856.91 108.442C854.428 110.088 851.59 111.524 848.593 111.834C847.035 111.993 845.427 111.834 843.873 111.672C842.459 111.524 841.037 111.225 839.713 110.697C838.337 110.146 837.031 109.337 836.031 108.234C835.838 107.937 835.655 107.632 835.484 107.318C833.457 103.606 833.467 98.8468 835.27 95.0469C835.296 94.9926 835.322 94.9383 835.349 94.8843C835.203 95.8145 835.158 96.7507 835.21 97.6387C835.495 102.437 838.699 106.759 842.965 108.816C843.383 109.018 843.748 108.415 843.333 108.183C839.81 106.22 837.444 102.641 837.178 98.5806C837.043 96.5046 837.238 94.4061 838.04 92.4697C838.345 91.7349 838.815 90.8887 839.422 90.1972C840.364 89.585 841.402 89.1277 842.517 88.8606C842.582 88.8556 842.644 88.8409 842.7 88.8184C843.361 88.6734 844.047 88.5952 844.755 88.5909C848.564 88.5655 852.574 90.4855 854.51 93.8563C854.774 94.315 854.985 94.7897 855.155 95.2805C853.915 98.0248 852.12 100.518 849.567 102.098C847.844 103.167 845.593 103.975 843.619 103.112C842.025 102.415 840.986 100.642 840.792 98.9564C840.562 96.9604 841.569 95.063 843.524 94.4421C845.256 93.8913 847.427 94.2843 848.545 95.8159C849.207 96.7239 850.729 95.8756 850.076 94.9183C847.731 91.4802 842.071 91.836 839.984 95.4005C837.68 99.3372 840.633 104.212 844.72 105.192C850.103 106.482 854.632 101.647 856.773 97.2426C857.3 97.0883 857.755 96.5893 857.627 95.8952M857.627 95.8952C857.6 95.7516 857.574 95.608 857.547 95.4637C859.446 90.5994 859.876 85.1732 859.493 80.0038C858.987 73.1949 857.049 66.5585 853.88 60.5219C853.644 60.0722 853.005 60.4665 853.209 60.9148C855.388 65.6759 856.819 70.797 857.389 76.0079C857.921 80.8733 857.884 85.9483 856.706 90.7212C856.69 90.783 856.675 90.8448 856.659 90.907C854.399 79.936 851.127 68.9968 844.322 59.9582C837.542 50.9525 827.697 44.3726 816.882 41.3125C810.781 39.5861 804.41 39.001 798.104 39.6858C797.508 39.7512 797.483 40.6784 798.104 40.6399C809.039 39.973 820.076 43.0092 829.276 48.9415C833.88 51.9095 837.985 55.6229 841.411 59.9018C845.187 64.6168 847.958 70.1041 850.055 75.7525C851.774 80.3807 853.071 85.1653 854.149 89.9936M857.627 95.8952C857.532 95.9217 857.437 95.9481 857.342 95.9742C857.407 95.8156 857.472 95.6563 857.534 95.4966C857.568 95.6288 857.599 95.7616 857.627 95.8952ZM854.149 89.9936C854.948 90.7187 855.65 91.5424 856.223 92.4522C855.941 93.3559 855.608 94.2571 855.22 95.1337C854.885 93.4181 854.53 91.7028 854.149 89.9936ZM854.149 89.9936C852.639 88.6237 850.787 87.6064 848.822 87.0249C844.429 85.7272 839.677 86.6917 836.358 89.9139C833.005 93.1702 831.461 98.1606 831.986 102.77C832.559 107.792 835.485 112.056 839.728 114.727C844.13 117.501 849.564 118.408 854.637 117.324C860.284 116.117 865.198 112.596 868.312 107.747C868.694 107.153 869.052 106.544 869.389 105.922C868.291 109.336 867.085 112.717 865.886 116.1C865.743 116.102 865.602 116.18 865.545 116.355C862.599 125.523 857.558 136.417 847.452 139.273C843.175 140.481 838.087 140.106 834.575 137.14C832.865 135.697 831.507 133.62 831.442 131.323C831.379 129.134 832.561 127.053 834.445 125.955C836.495 124.76 839.555 125.163 839.886 127.933C840.143 130.072 837.867 131.358 836.02 130.66C834.267 129.996 833.477 132.85 835.244 133.484C837.74 134.38 840.894 133.214 842.071 130.783C843.233 128.385 842.381 125.317 840.176 123.83C837.733 122.181 834.389 123.124 832.313 124.927C830.283 126.689 829.195 129.485 829.53 132.154C830.268 138.033 836.132 141.562 841.568 142.063C847.42 142.602 853.022 139.692 856.964 135.516C858.766 133.606 860.222 131.489 861.439 129.24C860.416 132.585 859.51 135.964 858.816 139.401C857.307 146.877 856.701 154.785 858.641 162.244C861.438 173.003 870.1 182.409 881.237 183.619C887.224 184.196 891.974 186.195 893.311 187.424C895.323 189.274 896.67 191.879 896.365 194.671C896.095 197.153 894.464 199.404 891.99 200.007C889.672 200.572 887.161 199.477 886.585 197.033C886.338 195.987 886.612 194.856 887.518 194.224C888.237 193.724 889.437 193.464 890.178 194.068C890.795 194.57 891.658 194.672 892.26 194.068C892.778 193.549 892.882 192.484 892.26 191.98C889.439 189.684 885.094 190.989 883.874 194.411C882.573 198.054 885.289 202.025 888.878 202.839C892.63 203.69 896.487 201.767 898.045 198.24C899.604 194.708 898.906 190.816 896.53 187.839C895.795 186.919 894.939 186.147 893.996 185.511C897.401 185.896 900.806 186.277 904.176 186.859C910.121 187.886 917.389 190.413 919.529 196.766C921.095 201.408 918.516 208.031 912.768 207.047C910.608 206.677 908.238 204.949 908.695 202.481C909.084 200.378 911.622 198.002 913.823 199.146C915.503 200.019 916.994 197.47 915.309 196.596C912.512 195.146 909.288 196.258 907.385 198.641C905.442 201.073 905.107 204.365 907.057 206.903C908.789 209.157 911.794 210.24 914.581 209.955C917.759 209.634 920.345 207.58 921.616 204.664C922.923 201.664 922.846 198.191 921.536 195.207C920.16 192.073 917.527 189.61 914.58 187.96C911.108 186.016 907.18 185.178 903.274 184.652C903.207 184.643 903.14 184.634 903.073 184.625C904.22 184.56 905.362 184.461 906.496 184.331C912.477 183.643 918.654 182.366 924.123 179.766C926.976 178.41 929.57 176.565 931.475 174.015C932.324 172.88 930.441 171.427 929.509 172.494C925.963 176.55 920.898 178.459 915.851 179.906C909.983 181.589 903.924 182.393 897.832 182.58C895.909 182.639 893.991 182.634 892.073 182.593C894.608 182.582 897.139 182.29 899.658 181.666C904.536 180.46 909.091 178.145 912.977 174.957C920.163 169.063 924.774 159.975 923.212 150.563C922.375 145.524 919.775 140.707 915.618 137.68C914.408 136.799 912.85 138.804 914.01 139.771C920.483 145.172 922.372 154.135 919.509 161.958C916.402 170.45 908.618 176.369 900.293 179.194C898.631 179.758 896.913 180.222 895.167 180.569C896.994 179.432 898.628 177.99 899.955 176.243C903.362 171.762 904.537 165.587 903.028 160.159C901.592 154.998 897.663 151.012 892.431 149.794C887.642 148.679 882.199 149.736 878.525 153.124C877.627 153.953 876.866 154.929 876.253 155.986C875.906 156.584 876.345 157.416 877.059 157.394C880.448 157.288 883.455 159.94 884.093 163.234C884.773 166.741 882.884 170.489 879.968 172.412C877.075 174.319 873.284 174.725 870.083 173.363C867.71 172.354 865.81 170.465 864.517 168.258C864.612 168.316 864.709 168.373 864.808 168.428C867.203 169.757 870.434 169.64 872.595 167.9C874.9 166.044 875.318 162.391 873.335 160.141C871.253 157.777 866.472 158.386 865.765 161.747C865.39 163.536 867.844 164.183 868.471 162.496C868.962 161.174 870.896 160.97 871.712 162.085C872.907 163.719 871.896 165.917 870.253 166.73C868.531 167.581 866.35 167.267 864.832 166.14C863.906 165.454 863.199 164.532 862.685 163.503C861.61 158.51 862.877 153.274 865.354 148.718C869.013 141.983 874.669 136.748 879.414 130.827C879.437 130.798 879.461 130.769 879.484 130.74C878.603 134.07 878.709 137.623 880.867 140.525C882.074 142.147 883.78 143.317 885.802 143.597C888.022 143.903 890.377 143.232 892.167 141.892C893.936 140.566 895.144 138.59 895.193 136.339C895.241 134.226 894.177 132.063 892.243 131.109C890.294 130.148 887.756 130.346 886.318 132.1C884.908 133.823 884.836 136.444 886.401 138.084C887.645 139.387 889.579 137.429 888.369 136.111C887.67 135.348 887.815 134.019 888.604 133.358C889.685 132.449 891.438 132.976 892.241 134.006C893.219 135.259 893.04 137.134 892.247 138.423C891.375 139.838 889.819 140.745 888.234 141.127C884.971 141.913 882.379 139.727 881.383 136.735C880.195 133.169 881.523 129.369 883.027 126.11C883.318 125.478 883.626 124.846 883.936 124.214C884.426 123.314 884.874 122.39 885.267 121.438C886.214 119.352 886.999 117.209 887.197 114.916C888.889 117.823 890.879 120.537 893.284 122.87C898.154 127.592 904.82 130.181 911.615 129.663C918.047 129.173 923.899 125.878 927.272 120.304C930.375 115.175 931.158 108.604 928.7 103.063C926.408 97.8973 921.108 94.236 915.594 93.4173C909.944 92.5779 904.362 94.7197 901.202 99.5894C900.437 100.768 899.833 102.059 899.402 103.407C899.569 100.082 900.545 96.7225 901.733 93.6799C902.978 90.4905 904.588 87.4543 906.156 84.4167C907.85 81.129 909.563 77.8489 911.179 74.5223M911.179 74.5223C911.411 74.0451 911.642 73.5646 911.87 73.0831C913.814 70.2191 916.063 67.5448 919.07 65.7709C922.468 63.7663 926.811 63.1233 930.414 65.0061C933.663 66.7057 935.72 70.696 934.386 74.2933C933.709 76.1193 932.103 77.392 930.45 78.2996C928.77 79.2212 926.812 79.7999 925.015 78.8594C923.533 78.0839 922.213 76.3947 922.81 74.643C923.343 73.0756 925.036 71.949 926.658 72.4923C928.458 73.0953 929.234 70.2405 927.44 69.6436C925.189 68.8964 922.719 69.843 921.231 71.6261C919.616 73.561 919.316 76.1297 920.49 78.3729C921.631 80.5532 923.978 81.9431 926.386 82.1574C929.07 82.3971 931.689 80.9358 933.685 79.273C937.609 76.0093 938.053 70.3491 934.996 66.3156C931.987 62.3464 926.36 61.3238 921.793 62.8033C919.104 63.6756 916.679 65.3173 914.717 67.3444C914.532 67.5351 914.353 67.7287 914.178 67.9255L911.179 74.5223ZM892.709 179.69C895.219 178.436 897.423 176.608 898.983 174.216C901.818 169.87 902.542 164.133 900.659 159.27C898.857 154.618 894.543 151.634 889.622 151.29C885.53 151.006 881.293 152.41 878.738 155.638C882.079 156.226 884.937 158.885 885.865 162.183C887.042 166.365 885.141 170.998 881.82 173.633C880.15 174.955 878.142 175.85 876.048 176.222C877.823 176.335 879.608 176.193 881.289 175.649C887.527 173.631 890.706 167.012 888.94 160.776C888.836 160.412 889.351 160.298 889.488 160.624C890.697 163.518 890.77 166.771 889.755 169.739C888.005 174.857 883.125 178.472 877.726 178.605C876.807 178.627 875.866 178.556 874.926 178.411C875.685 178.902 876.503 179.327 877.386 179.683C879.462 180.521 885.781 181.223 886.529 181.258C891.109 179.711 894.51 175.223 895.519 170.51C896.618 165.382 895.789 158.276 890.447 155.825C889.957 155.6 890.316 154.755 890.813 154.954C893.212 155.911 895.025 157.824 896.165 160.123C898.516 164.869 898.259 170.741 895.947 175.45C895.143 177.086 894.034 178.524 892.709 179.69ZM875.179 83.6937C875.165 95.7341 871.201 107.647 867.376 118.922C865.057 125.759 862.731 132.638 861.273 139.723C860.517 143.407 859.956 147.212 859.833 151.016C860.53 146.908 861.587 142.885 862.854 138.871C864.664 133.134 866.964 127.523 869.639 122.138C869.697 122.02 869.897 122.105 869.851 122.227C867.718 127.82 865.976 133.526 864.58 139.347C864.252 140.717 863.948 142.093 863.662 143.474C865.092 140.805 866.632 138.199 868.214 135.599C870.73 131.46 873.288 127.342 875.903 123.265C876.326 122.607 877.371 123.211 876.954 123.881C874.395 128.001 871.981 132.191 869.735 136.49C868.476 138.902 867.259 141.334 866.025 143.757C869.342 139.093 873.479 134.978 877.109 130.576C882.131 124.485 886.472 117.115 884.108 108.977C884.075 108.862 884.06 108.752 884.06 108.649C883.388 107.102 882.77 105.539 882.191 103.983C882.096 103.729 882.002 103.474 881.91 103.22C881.781 107.045 880.679 110.951 878.597 114.152C878.404 114.448 877.974 114.19 878.126 113.876C879.905 110.229 880.108 106.381 879.946 102.404C879.858 100.258 879.815 98.112 879.529 95.9792C879.516 95.8866 879.504 95.7938 879.49 95.7016C879.166 94.5754 878.855 93.4452 878.554 92.3118C878.603 93.1784 878.629 94.0464 878.627 94.9154C878.617 100.727 877.253 106.621 874.531 111.762C874.249 112.295 873.467 111.824 873.729 111.293C876.301 106.091 876.736 100.303 876.45 94.5865C876.267 90.9202 875.768 87.3014 875.179 83.6937ZM917.383 51.1129C915.191 55.6765 911.419 59.4253 906.713 61.3756C900.876 63.7927 893.897 63.4877 888.402 60.3086C885.944 58.887 883.864 57.0124 882.047 54.8867C882.067 54.9346 882.087 54.9825 882.108 55.0303C884.755 61.3013 886.297 67.9134 887.562 74.5919C888.366 71.5864 889.561 68.6924 891.173 66.0134C891.364 65.6948 891.818 65.9731 891.664 66.3006C889.806 70.2062 888.629 74.3819 888.307 78.6793L888.324 78.7715C888.829 81.6259 889.317 84.4838 889.851 87.3332L889.868 87.4243C890.143 85.6133 890.6 83.8112 891.212 82.0291C893.03 76.7308 895.934 71.8951 899.086 67.299C899.3 66.9882 899.805 67.2754 899.597 67.5983C896.703 72.108 894.23 76.9316 892.887 82.1481C891.553 87.3246 891.192 93.1512 892.368 98.3917C892.393 98.5024 892.398 98.606 892.387 98.701C893.04 101.021 893.805 103.304 894.743 105.506C895.419 107.092 896.211 108.654 897.155 110.101C896.244 107.5 895.645 104.777 895.28 102.06C893.584 89.4253 898.149 76.6347 906.828 67.4087C907.193 67.02 907.767 67.6019 907.41 67.992C905.086 70.5252 903.072 73.3589 901.552 76.4501C898.903 81.8363 897.408 87.8743 897.06 93.8635C896.908 96.4771 896.912 99.095 897.18 101.699C897.633 98.3403 898.787 95.0329 900.092 91.9596C902.649 85.9333 906.044 80.276 908.976 74.4315C914.888 62.6394 917.383 51.1129 917.383 51.1129ZM861.238 64.5982C862.78 70.6124 863.672 76.8516 863.157 83.0668C862.679 88.8309 860.979 94.1832 858.27 99.27C857.831 100.098 858.97 100.724 859.502 99.9919C862.927 95.2694 864.469 89.1556 864.743 83.3911C865.051 76.9469 863.865 70.5306 861.953 64.4003C861.811 63.9449 861.118 64.1324 861.238 64.5982ZM799.816 32.026C796.376 32.4032 792.964 33.2744 789.621 34.7832C788.301 35.379 787.016 36.0759 785.793 36.8682C785.333 37.105 784.877 37.3508 784.424 37.6048C781.517 39.2375 778.692 40.8313 775.326 41.2496C769.531 41.9701 763.851 39.6018 761.083 34.3021C758.74 29.8103 759.964 23.7483 764.391 21.0129C768.312 18.5897 774.387 20.087 776.024 24.6549C777.051 27.5182 775.983 31.3416 772.606 31.8792C771.48 32.0593 769.969 31.5902 769.529 30.4161C769.194 29.5199 770.006 28.3905 770.966 28.7269C772.765 29.3563 773.545 26.4855 771.751 25.8676C770.028 25.2739 768.192 26.1505 767.219 27.6211C766.244 29.0945 766.312 30.9934 767.325 32.4282C769.56 35.5894 773.961 35.3648 776.649 32.9626C779.532 30.3847 779.743 25.9244 777.95 22.6649C776.484 20.0038 773.637 18.1417 770.693 17.5599C767.498 16.9287 764.3 17.6477 761.738 19.6777C759.123 21.748 757.498 24.8974 757.09 28.1911C756.209 35.3126 761.941 41.7304 768.638 43.2053C772.493 44.0536 776.493 43.511 780.055 41.8876C778.724 43.4714 777.606 45.2306 776.77 47.1498C774.073 53.3429 773.898 60.6476 776.187 66.9968C778.227 72.6598 782.248 77.5742 787.917 79.8188C793.002 81.8309 799.269 81.4869 803.883 78.4361C809.149 74.9548 811.479 68.1473 809.676 62.1046C807.889 56.1141 801.949 51.6805 795.689 51.777C792.938 51.8202 790.212 52.7578 787.932 54.3345C789.917 50.9947 794.001 49.0326 797.608 48.0221C802.423 46.6737 807.558 46.7973 812.371 48.0817C822.413 50.7593 830.096 57.9715 835.379 66.7186C836.322 68.2788 837.184 69.8816 837.972 71.5186C836.336 69.5151 834.336 67.838 831.949 66.7436C827.425 64.67 821.748 64.9426 817.776 68.1081C813.424 71.5761 812.045 78.7097 816.799 82.4885C818.927 84.182 821.997 84.596 824.415 83.2551C826.678 82.0002 827.958 79.0787 827.091 76.5826C826.169 73.929 822.962 72.3694 820.361 73.5971C819.065 74.209 818.032 75.541 818.056 77.0202C818.082 78.6783 819.424 80.0013 821.051 80.0521C822.609 80.101 822.591 77.7242 821.051 77.6335C820.105 77.5785 820.73 76.3433 821.103 76.0425C821.703 75.5574 822.548 75.5499 823.246 75.8146C824.886 76.4397 825.325 78.2853 824.624 79.7974C823.76 81.6655 821.486 82.2799 819.629 81.6623C817.794 81.0536 816.517 79.3719 816.024 77.547C814.92 73.4528 817.888 69.4761 821.576 68.0295C825.059 66.6632 829.114 67.0472 832.385 68.8046C835.775 70.6267 838.378 73.5485 840.253 76.8719C840.996 78.8522 841.65 80.8675 842.226 82.9057C842.524 83.9623 844.158 83.5158 843.868 82.4517C840.983 71.8086 836.056 61.3427 827.57 54.0484C819.576 47.1784 808.227 43.4278 797.812 46.0739C792.918 47.3166 787.323 50.351 786.271 55.6715C784.542 57.2849 783.218 59.317 782.564 61.6088C780.946 67.2722 784.329 73.5707 789.688 75.7628C791.028 76.3122 792.455 76.5608 793.904 76.4936C795.312 76.4297 795.329 74.2554 793.904 74.2851C788.812 74.3894 784.444 69.6833 784.291 64.6825C784.125 59.2663 788.859 54.9635 793.912 54.0869C799.299 53.1507 804.897 56.5605 807.021 61.5195C809.202 66.6128 807.588 73.0735 803.08 76.3465C799.106 79.2323 793.727 79.6831 789.146 78.1325C785.476 76.8912 782.53 74.1715 780.496 70.8985C778.955 67.6258 778.455 63.822 778.88 60.2715C779.465 55.4014 781.899 50.9322 785.179 47.3602C787.071 45.3002 789.21 43.5768 791.636 42.1898C792.221 41.8547 791.701 40.9678 791.109 41.2864C786.498 43.7657 782.378 47.2366 779.76 51.8312C778.34 54.3252 777.432 57.0599 777.076 59.8668C776.835 56.3009 777.327 52.6817 778.576 49.3466C780.5 44.2151 784.521 40.2323 789.268 37.6515C800.701 31.4316 814.366 33.8935 826.178 37.653C827.837 38.1813 829.48 38.7646 831.132 39.3154C831.667 39.494 831.859 38.6888 831.36 38.4863C824.648 35.7584 817.501 33.2434 810.291 32.25C810.085 32.2118 809.878 32.1764 809.671 32.1439C809.064 31.8757 808.478 31.5602 807.917 31.1977C806.977 30.589 806.142 29.8568 805.412 29.0056C805.065 28.6037 804.74 28.184 804.446 27.7404C804.122 27.2506 803.896 26.6866 803.554 26.2162C803.217 25.7504 802.674 25.4961 802.113 25.7429C801.639 25.9515 801.224 26.5677 801.445 27.1078C801.945 28.3283 803.011 29.446 804.019 30.2779C804.656 30.8044 805.335 31.2845 806.049 31.7021C803.834 31.4427 801.607 31.1373 799.504 30.3633C795.317 28.8216 792.482 24.797 792.353 20.3292C792.231 16.12 794.918 11.81 798.85 10.2323C801.028 9.36001 803.613 9.23642 805.727 10.3559C807.561 11.326 808.85 13.2967 808.834 15.4027C808.817 17.4877 807.248 19.1576 805.191 19.3987C804.354 19.4969 803.474 19.308 802.85 18.7143C802.421 18.3064 801.877 17.0398 802.905 16.9105C803.69 16.8108 804.371 16.3047 804.371 15.4399C804.371 14.7212 803.696 13.8682 802.905 13.9679C799.56 14.389 798.346 18.0982 800.639 20.5492C802.464 22.5006 805.495 22.5571 807.687 21.219C812.603 18.2185 811.022 11.1178 806.243 8.88672C801.029 6.45206 794.884 9.31857 792.043 13.9857C789.107 18.8079 790.065 25.0307 794.09 28.9227C795.721 30.5011 797.695 31.4642 799.816 32.026ZM912.413 30.793C913.274 33.0169 913.632 35.4562 913.543 37.8326C913.383 42.144 912.038 47.343 908.298 49.9149C908.108 50.0456 907.872 49.7363 908.052 49.5948C911.4 46.9887 912.254 41.6993 912.132 37.6941C912.117 37.2047 912.085 36.7171 912.036 36.2328C911.883 39.1725 910.723 42.0033 908.838 44.3222C906.145 47.6335 902.176 49.6623 898.018 50.396C893.072 51.2697 888.019 50.4064 883.412 48.4982C881.473 47.6949 879.654 46.7369 877.91 45.6639C880.574 47.7688 883.334 49.7752 886.457 51.1465C890.237 52.8046 894.469 53.4536 898.531 52.6096C898.888 52.5353 899.039 53.0682 898.683 53.159C891.732 54.9428 884.441 52.4728 878.841 48.1785C879.898 49.9742 881.485 51.2737 883.238 52.4088C885.239 53.7022 887.373 54.8364 889.557 55.7858C894.276 57.8368 899.659 58.8548 904.589 56.9095C904.951 56.7667 905.204 57.3828 904.853 57.5361C899.761 59.7728 893.985 59.4367 888.889 57.3707C887.01 56.6091 885.037 55.6754 883.236 54.5002C885.317 56.652 887.695 58.4762 890.487 59.6878C895.814 62.0007 902.24 61.8771 907.412 59.1967C912.295 56.6666 915.922 51.9977 917.361 46.6976C917.808 45.0566 918.023 43.3514 918.008 41.6482C917.962 40.6792 917.88 39.709 917.757 38.7389C917.338 36.207 916.395 33.767 914.931 31.6499C915.468 32.7476 915.88 33.9074 916.169 35.0726C917.149 39.0228 916.474 42.8388 914.716 46.4511C914.679 46.5269 914.547 46.4718 914.578 46.3929C915.924 43.001 915.926 38.9067 914.837 35.4419C914.297 33.7299 913.44 32.2064 912.413 30.793ZM913.558 26.2208C909.733 19.7248 903.556 14.7644 895.693 14.1604C890.578 13.7657 885.243 15.1516 881.436 18.719C879.299 20.7221 877.6 23.3625 877.132 26.2962C876.742 28.7519 877.465 31.2702 878.768 33.3491C881.479 37.6744 886.921 39.938 891.688 37.649C896.095 35.5334 899.093 30.4269 898.145 25.5279C898.039 25.5036 897.945 25.4557 897.864 25.3914C897.22 25.6165 896.582 25.8654 895.956 26.139C896.33 26.9627 896.396 27.9758 896.312 28.8373C896.256 29.4103 896.131 29.97 895.912 30.5026C895.698 31.0219 895.377 31.4581 895.005 31.8749C894.77 32.1382 894.338 31.7946 894.523 31.5013C895.017 30.7169 895.3 29.7214 895.31 28.7941C895.316 28.3208 895.254 27.8668 895.11 27.416C895.029 27.161 894.917 26.9195 894.803 26.6784C894.251 26.9545 893.714 27.2506 893.194 27.5675C893.391 27.8843 893.526 28.2519 893.62 28.5998C893.743 29.0552 893.786 29.5328 893.747 30.0032C893.666 30.9601 893.33 31.8724 892.698 32.6018C892.434 32.9069 891.919 32.5022 892.143 32.1718C892.579 31.5274 892.774 30.7801 892.705 30.0032C892.676 29.6639 892.572 29.2681 892.438 28.9255C892.432 28.9102 892.429 28.9009 892.427 28.8966C892.418 28.8677 892.485 29.0231 892.409 28.8555L892.199 28.4687C892.163 28.4098 892.124 28.353 892.084 28.2965C891.563 28.6637 891.043 29.0656 890.54 29.4992C890.581 29.5992 890.628 29.7103 890.659 29.8075C890.714 29.9804 890.756 30.1575 890.785 30.3343C890.843 30.6901 890.888 31.0534 890.876 31.4149C890.854 32.1532 890.643 32.8826 890.248 33.5077C889.974 33.9438 889.293 33.5477 889.558 33.1026C889.863 32.5908 890.021 32.0117 890.026 31.4149C890.027 31.1262 889.999 30.8508 889.915 30.5772C889.88 30.4647 889.831 30.3272 889.776 30.1975C888.472 31.4602 887.358 32.9419 886.763 34.5764C886.65 34.8904 886.178 34.7686 886.26 34.4382C887.037 31.2977 888.625 28.6916 891.261 26.7909C893.317 25.3093 895.558 24.4752 897.931 23.9894C897.986 23.9601 898.047 23.9358 898.115 23.9173C902.833 22.6403 907.766 23.7194 911.648 26.4227C907.551 21.2765 902.049 16.5593 895.124 18.051C894.63 18.1567 894.42 17.4141 894.915 17.2891C898.904 16.2711 903.156 17.3634 906.566 19.5648C909.303 21.3304 911.536 23.6915 913.558 26.2208Z" stroke="black" stroke-width="0.6" stroke-miterlimit="2" stroke-linejoin="round"/>
<path d="M87.9499 40.6013C86.819 41.7711 85.7472 42.996 84.7339 44.2697C76.1868 55.0082 72.4778 68.5446 69.1596 81.6223C67.3519 88.7441 65.5799 95.897 63.036 102.8C62.3941 104.542 61.7017 106.298 60.9369 108.032C60.8693 108.131 60.8155 108.249 60.7802 108.386C58.745 112.934 56.2032 117.309 52.7717 120.85C48.3717 125.392 42.3807 127.956 36.0451 127.634C32.0099 126.392 28.4266 123.819 26.0626 120.245C22.9029 115.466 22.1934 109.3 24.1926 103.93C24.3127 103.609 23.7873 103.393 23.642 103.698C20.9987 109.201 21.1618 115.984 24.4298 121.202C25.467 122.859 26.7849 124.317 28.2973 125.532C25.4692 124.034 23.0681 121.779 21.3947 118.88C18.6639 114.148 17.9721 107.963 20.6599 103.051C23.1846 98.4388 28.3728 95.4727 33.5896 95.3848C38.6877 95.2987 43.1087 98.2113 45.0349 102.95C46.8412 107.393 46.4315 112.877 42.9573 116.393C42.5616 116.793 42.5277 117.258 42.7041 117.634C40.9231 117.346 39.1785 116.758 37.6458 115.84C33.0036 113.059 30.7554 107.132 31.9336 101.912C32.0465 101.413 31.331 101.218 31.1739 101.701C30.3472 104.24 30.3515 106.842 30.9513 109.429C32.0092 113.997 35.5593 118.15 40.0754 119.526C44.6168 120.908 50.2314 119.545 53.5824 116.161C53.9966 115.742 53.446 114.983 52.9441 115.33C50.6424 116.917 48.0526 117.869 45.2415 117.847C45.2002 117.846 45.1589 117.846 45.1176 117.845C49.4182 115.497 52.2873 111.238 54.2039 106.808C56.6452 101.17 58.0479 95.099 59.2262 89.0877C61.3305 78.36 62.4557 67.2986 66.4718 57.0531C69.7188 48.7704 74.9458 40.6742 82.6797 35.9859C86.5266 33.6538 90.9981 32.1282 95.5352 32.4064C99.87 32.6715 104.044 34.944 105.385 39.3018C106.684 43.5196 105.332 48.2511 102.082 51.1951C102.012 51.2579 101.942 51.3201 101.871 51.3812C103.062 49.4244 103.624 47.0859 103.303 44.7198C102.606 39.5643 97.8149 36.1245 92.7869 36.1574C92.2035 36.162 92.2049 37.0593 92.7869 37.064C97.0284 37.104 100.918 40.7681 101.687 44.8984C102.262 47.9824 100.937 51.3122 98.6198 53.4401C95.7009 54.7421 92.3527 55.0214 89.1905 54.4499C87.8013 54.1984 87.2108 56.3284 88.6042 56.5798C89.7857 56.7942 90.9938 56.8895 92.1942 56.8627C96.9422 56.7556 101.849 54.8874 104.873 51.0997C107.708 47.5488 108.704 42.4734 107.12 38.1634C105.453 33.6209 101.273 31.0209 96.617 30.4329C91.8665 29.8332 87.0534 31.1891 82.8785 33.4184C79.1004 35.4366 75.8495 38.217 73.0812 41.4486C69.67 43.6139 66.0853 45.6531 62.3303 47.0309C58.1259 48.5743 53.4392 49.3423 49.0018 48.4714C45.2736 47.7392 41.909 45.7421 39.4649 42.8248C37.1361 40.0448 35.9504 36.4371 36.6702 32.8262C37.3099 29.6224 39.1636 27.0331 41.7944 25.236C43.7513 24.8513 45.7862 24.8621 47.7733 25.3321C47.488 26.5055 47.3847 27.7182 47.4976 28.923C47.9696 34.0085 51.6949 38.7606 56.6516 40.1419C62.0333 41.6407 67.6283 38.4899 70.2997 33.8152C73.369 28.4394 71.6472 22.1734 67.3804 18.0003C63.4755 14.1797 57.8791 12.3726 52.4857 12.5155C40.4423 12.8327 31.4827 22.6006 28.4697 33.7213C24.6973 47.6506 29.7656 62.0589 35.8207 74.5223M87.9499 40.6013C88.6993 39.8272 89.8078 40.9746 89.1178 41.7725M87.9499 40.6013C87.0295 41.6372 86.1465 42.7041 85.302 43.8025C79.0438 51.9388 74.9921 61.6571 73.313 71.7722C73.3793 71.5825 73.5574 71.5375 73.7045 71.5922L71.1898 81.3083C74.621 67.2615 78.6206 52.3203 89.1178 41.7725M87.9499 40.6013L89.1178 41.7725M89.1178 41.7725C82.3919 49.5548 77.8309 59.0595 75.7814 69.1429C73.7394 79.183 74.2203 89.7443 77.4288 99.4911C79.1488 104.717 81.9659 109.518 86.6957 112.516C90.8617 115.158 95.9299 116.196 100.759 115.079C102.543 114.665 104.273 113.986 105.849 113.056C104.163 113.547 102.394 113.817 100.761 113.978C94.2116 114.623 87.8419 110.082 84.0425 105.08C81.9513 102.326 80.4689 99.0668 79.9567 95.6334C79.8737 95.0826 80.7046 94.8326 80.8058 95.398C81.8031 100.947 85.4897 105.391 90.0902 108.442C92.5718 110.088 95.4095 111.524 98.4072 111.834C99.9655 111.993 101.573 111.834 103.127 111.672C104.541 111.524 105.963 111.225 107.287 110.697C108.663 110.146 109.969 109.337 110.969 108.234C111.162 107.937 111.345 107.632 111.516 107.318C113.543 103.606 113.533 98.8468 111.73 95.0469C111.704 94.9926 111.678 94.9383 111.651 94.8843C111.797 95.8145 111.842 96.7507 111.79 97.6387C111.505 102.437 108.301 106.759 104.035 108.816C103.617 109.018 103.252 108.415 103.667 108.183C107.19 106.22 109.556 102.641 109.822 98.5806C109.957 96.5046 109.762 94.4061 108.96 92.4697C108.655 91.7349 108.185 90.8887 107.578 90.1972C106.636 89.585 105.598 89.1277 104.483 88.8606C104.418 88.8556 104.356 88.8409 104.3 88.8184C103.639 88.6734 102.953 88.5952 102.245 88.5909C98.4364 88.5655 94.4265 90.4855 92.4899 93.8563C92.2263 94.315 92.0147 94.7897 91.8455 95.2805C93.0847 98.0248 94.8802 100.518 97.4327 102.098C99.1559 103.167 101.407 103.975 103.381 103.112C104.975 102.415 106.014 100.642 106.208 98.9564C106.438 96.9604 105.431 95.063 103.476 94.4421C101.744 93.8913 99.573 94.2843 98.4553 95.8159C97.7935 96.7239 96.2708 95.8756 96.9237 94.9183C99.2688 91.4802 104.929 91.836 107.016 95.4005C109.32 99.3372 106.367 104.212 102.28 105.192C96.8966 106.482 92.368 101.647 90.227 97.2426C89.7002 97.0883 89.245 96.5893 89.3732 95.8952M89.3732 95.8952C89.3996 95.7516 89.4259 95.608 89.4526 95.4637C87.5538 90.5994 87.1235 85.1732 87.5071 80.0038C88.0133 73.1949 89.9513 66.5585 93.1199 60.5219C93.3561 60.0722 93.9955 60.4665 93.7907 60.9148C91.6122 65.6759 90.1814 70.797 89.6115 76.0079C89.0786 80.8733 89.1157 85.9483 90.2943 90.7212C90.3096 90.783 90.3249 90.8448 90.3406 90.907C92.601 79.936 95.8729 68.9968 102.678 59.9582C109.458 50.9525 119.303 44.3726 130.118 41.3125C136.219 39.5861 142.59 39.001 148.896 39.6858C149.492 39.7512 149.517 40.6784 148.896 40.6399C137.961 39.973 126.924 43.0092 117.724 48.9415C113.12 51.9095 109.015 55.6229 105.589 59.9018C101.813 64.6168 99.0419 70.1041 96.945 75.7525C95.2264 80.3807 93.9288 85.1653 92.851 89.9936M89.3732 95.8952C89.4683 95.9217 89.5634 95.9481 89.6585 95.9742C89.5926 95.8156 89.5282 95.6563 89.4658 95.4966C89.4323 95.6288 89.4014 95.7616 89.3732 95.8952ZM92.851 89.9936C92.0521 90.7187 91.3497 91.5424 90.7769 92.4522C91.0594 93.3559 91.3917 94.2571 91.78 95.1337C92.1155 93.4181 92.4695 91.7028 92.851 89.9936ZM92.851 89.9936C94.3605 88.6237 96.2127 87.6064 98.1782 87.0249C102.571 85.7272 107.323 86.6917 110.642 89.9139C113.995 93.1702 115.539 98.1606 115.014 102.77C114.441 107.792 111.515 112.056 107.272 114.727C102.87 117.501 97.4362 118.408 92.3634 117.324C86.7164 116.117 81.8024 112.596 78.6876 107.747C78.3058 107.153 77.9478 106.544 77.6108 105.922C78.7093 109.336 79.9154 112.717 81.1143 116.1C81.2571 116.102 81.3981 116.18 81.4548 116.355C84.4008 125.523 89.4423 136.417 99.5477 139.273C103.825 140.481 108.913 140.106 112.425 137.14C114.135 135.697 115.493 133.62 115.558 131.323C115.621 129.134 114.439 127.053 112.555 125.955C110.505 124.76 107.445 125.163 107.114 127.933C106.857 130.072 109.133 131.358 110.98 130.66C112.733 129.996 113.523 132.85 111.756 133.484C109.26 134.38 106.106 133.214 104.929 130.783C103.767 128.385 104.619 125.317 106.824 123.83C109.267 122.181 112.611 123.124 114.687 124.927C116.717 126.689 117.805 129.485 117.47 132.154C116.732 138.033 110.868 141.562 105.432 142.063C99.5805 142.602 93.9776 139.692 90.0361 135.516C88.2338 133.606 86.778 131.489 85.5609 129.24C86.5836 132.585 87.4897 135.964 88.1843 139.401C89.6934 146.877 90.2989 154.785 88.3591 162.244C85.562 173.003 76.8998 182.409 65.7626 183.619C59.7765 184.196 55.0256 186.195 53.6892 187.424C51.6768 189.274 50.3304 191.879 50.6349 194.671C50.9049 197.153 52.5359 199.404 55.01 200.007C57.328 200.572 59.8392 199.477 60.4151 197.033C60.6616 195.987 60.3884 194.856 59.4816 194.224C58.7631 193.724 57.5628 193.464 56.8219 194.068C56.2046 194.57 55.3423 194.672 54.74 194.068C54.2217 193.549 54.1181 192.484 54.74 191.98C57.561 189.684 61.9065 190.989 63.1264 194.411C64.4265 198.054 61.7106 202.025 58.122 202.839C54.3703 203.69 50.5131 201.767 48.9548 198.24C47.3965 194.708 48.0939 190.816 50.47 187.839C51.2052 186.919 52.0615 186.147 53.0036 185.511C49.5991 185.896 46.194 186.277 42.8237 186.859C36.8786 187.886 29.611 190.413 27.4706 196.766C25.9048 201.408 28.4843 208.031 34.2325 207.047C36.3917 206.677 38.7618 204.949 38.3048 202.481C37.9158 200.378 35.378 198.002 33.1771 199.146C31.497 200.019 30.0056 197.47 31.6915 196.596C34.4875 195.146 37.7124 196.258 39.6152 198.641C41.5578 201.073 41.8934 204.365 39.9433 206.903C38.2111 209.157 35.206 210.24 32.4188 209.955C29.2412 209.634 26.6546 207.58 25.3841 204.664C24.0765 201.664 24.1538 198.191 25.4642 195.207C26.8398 192.073 29.4728 189.61 32.4202 187.96C35.8916 186.016 39.82 185.178 43.7263 184.652C43.7933 184.643 43.8599 184.634 43.9268 184.625C42.7803 184.56 41.638 184.461 40.5039 184.331C34.5228 183.643 28.3458 182.366 22.8769 179.766C20.0245 178.41 17.4304 176.565 15.5248 174.015C14.6756 172.88 16.5592 171.427 17.4909 172.494C21.0368 176.55 26.1018 178.459 31.1493 179.906C37.0175 181.589 43.0759 182.393 49.1681 182.58C51.0912 182.639 53.0089 182.634 54.9266 182.593C52.3923 182.582 49.8606 182.29 47.342 181.666C42.4636 180.46 37.9091 178.145 34.0234 174.957C26.8373 169.063 22.2265 159.975 23.7876 150.563C24.6247 145.524 27.2249 140.707 31.3819 137.68C32.5915 136.799 34.1499 138.804 32.9905 139.771C26.5167 145.172 24.6275 154.135 27.4906 161.958C30.5983 170.45 38.3824 176.369 46.7069 179.194C48.3685 179.758 50.0871 180.222 51.8335 180.569C50.0059 179.432 48.3717 177.99 47.0446 176.243C43.6383 171.762 42.4629 165.587 43.9725 160.159C45.4075 154.998 49.3374 151.012 54.569 149.794C59.358 148.679 64.8005 149.736 68.475 153.124C69.3729 153.953 70.1344 154.929 70.7471 155.986C71.0943 156.584 70.6552 157.416 69.9414 157.394C66.5515 157.288 63.545 159.94 62.9067 163.234C62.2271 166.741 64.1163 170.489 67.0324 172.412C69.925 174.319 73.7155 174.725 76.9166 173.363C79.2902 172.354 81.1898 170.465 82.4827 168.258C82.3876 168.316 82.2908 168.373 82.1921 168.428C79.7968 169.757 76.5657 169.64 74.4051 167.9C72.1002 166.044 71.6817 162.391 73.6646 160.141C75.7465 157.777 80.5284 158.386 81.235 161.747C81.6105 163.536 79.1556 164.183 78.5294 162.496C78.0382 161.174 76.1045 160.97 75.2881 162.085C74.0935 163.719 75.104 165.917 76.7471 166.73C78.4685 167.581 80.6502 167.267 82.1682 166.14C83.094 165.454 83.8007 164.532 84.3146 163.503C85.3896 158.51 84.1227 153.274 81.6464 148.718C77.9866 141.983 72.3307 136.748 67.5859 130.827C67.5627 130.798 67.5393 130.769 67.5161 130.74C68.397 134.07 68.2912 137.623 66.133 140.525C64.9262 142.147 63.2197 143.317 61.1984 143.597C58.9779 143.903 56.6228 143.232 54.833 141.892C53.0638 140.566 51.856 138.59 51.8068 136.339C51.7594 134.226 52.8233 132.063 54.7571 131.109C56.7058 130.148 59.2436 130.346 60.6819 132.1C62.0917 133.823 62.1644 136.444 60.5986 138.084C59.3551 139.387 57.4214 137.429 58.6306 136.111C59.3298 135.348 59.1845 134.019 58.3963 133.358C57.3145 132.449 55.5617 132.976 54.7589 134.006C53.7808 135.259 53.9603 137.134 54.7528 138.423C55.6255 139.838 57.1809 140.745 58.766 141.127C62.0294 141.913 64.6207 139.727 65.6166 136.735C66.8052 133.169 65.4769 129.369 63.9734 126.11C63.6817 125.478 63.3743 124.846 63.0645 124.214C62.5736 123.314 62.1263 122.39 61.7334 121.438C60.7863 119.352 60.0005 117.209 59.8032 114.916C58.1106 117.823 56.121 120.537 53.7156 122.87C48.8462 127.592 42.1797 130.181 35.3855 129.663C28.9531 129.173 23.1013 125.878 19.7278 120.304C16.6247 115.175 15.8425 108.604 18.3002 103.063C20.5916 97.8973 25.8916 94.236 31.4065 93.4173C37.0563 92.5779 42.6382 94.7197 45.7979 99.5894C46.5634 100.768 47.1674 102.059 47.5977 103.407C47.4307 100.082 46.4547 96.7225 45.2672 93.6799C44.022 90.4905 42.4116 87.4543 40.8444 84.4167C39.1497 81.129 37.4368 77.8489 35.8207 74.5223M35.8207 74.5223C35.5889 74.0451 35.3584 73.5646 35.1304 73.0831C33.1863 70.2191 30.937 67.5448 27.9301 65.7709C24.5317 63.7663 20.1891 63.1233 16.5855 65.0061C13.3367 66.7057 11.2797 70.696 12.614 74.2933C13.2908 76.1193 14.8968 77.392 16.5499 78.2996C18.23 79.2212 20.1877 79.7999 21.985 78.8594C23.4674 78.0839 24.7867 76.3947 24.1901 74.643C23.6573 73.0756 21.964 71.949 20.3419 72.4923C18.5417 73.0953 17.7656 70.2405 19.5597 69.6436C21.8111 68.8964 24.2806 69.843 25.7695 71.6261C27.3841 73.561 27.684 76.1297 26.51 78.3729C25.3688 80.5532 23.0222 81.9431 20.6136 82.1574C17.9301 82.3971 15.3107 80.9358 13.3147 79.273C9.39053 76.0093 8.94669 70.3491 12.0042 66.3156C15.0126 62.3464 20.6403 61.3238 25.207 62.8033C27.8959 63.6756 30.3212 65.3173 32.2831 67.3444C32.4676 67.5351 32.6467 67.7287 32.8216 67.9255L35.8207 74.5223ZM54.2912 179.69C51.7811 178.436 49.5767 176.608 48.0166 174.216C45.1821 169.87 44.4575 164.133 46.3411 159.27C48.1427 154.618 52.4568 151.634 57.3783 151.29C61.4702 151.006 65.7074 152.41 68.2616 155.638C64.9213 156.226 62.0625 158.885 61.1346 162.183C59.9578 166.365 61.8588 170.998 65.1802 173.633C66.8497 174.955 68.8575 175.85 70.9522 176.222C69.1774 176.335 67.3921 176.193 65.7106 175.649C59.4726 173.631 56.2937 167.012 58.06 160.776C58.1637 160.412 57.6486 160.298 57.5122 160.624C56.3026 163.518 56.2299 166.771 57.2451 169.739C58.995 174.857 63.8748 178.472 69.2739 178.605C70.1932 178.627 71.1339 178.556 72.0735 178.411C71.3152 178.902 70.497 179.327 69.6144 179.683C67.5382 180.521 61.219 181.223 60.4714 181.258C55.8908 179.711 52.4896 175.223 51.4805 170.51C50.3824 165.382 51.2105 158.276 56.5533 155.825C57.0431 155.6 56.6841 154.755 56.1868 154.954C53.7883 155.911 51.9749 157.824 50.8351 160.123C48.4843 164.869 48.7411 170.741 51.0531 175.45C51.857 177.086 52.9662 178.524 54.2912 179.69ZM71.821 83.6937C71.8352 95.7341 75.7985 107.647 79.6236 118.922C81.9435 125.759 84.269 132.638 85.7266 139.723C86.4835 143.407 87.0441 147.212 87.1673 151.016C86.4696 146.908 85.4127 142.885 84.1465 138.871C82.336 133.134 80.0358 127.523 77.3611 122.138C77.3034 122.02 77.1029 122.105 77.1488 122.227C79.2817 127.82 81.0242 133.526 82.4204 139.347C82.7485 140.717 83.0519 142.093 83.3379 143.474C81.9078 140.805 80.3677 138.199 78.7859 135.599C76.2701 131.46 73.7116 127.342 71.0965 123.265C70.6737 122.607 69.629 123.211 70.0457 123.881C72.6046 128.001 75.0192 132.191 77.2646 136.49C78.5241 138.902 79.7408 141.334 80.9754 143.757C77.6578 139.093 73.5214 134.978 69.8908 130.576C64.8686 124.485 60.5277 117.115 62.8917 108.977C62.9252 108.862 62.9402 108.752 62.9398 108.649C63.6116 107.102 64.2299 105.539 64.8094 103.983C64.9042 103.729 64.9978 103.474 65.0901 103.22C65.2194 107.045 66.3215 110.951 68.403 114.152C68.5961 114.448 69.0263 114.19 68.8735 113.876C67.0954 110.229 66.8924 106.381 67.0541 102.404C67.1418 100.258 67.1845 98.112 67.4712 95.9792C67.4837 95.8866 67.4965 95.7938 67.5097 95.7016C67.8338 94.5754 68.1448 93.4452 68.4464 92.3118C68.3966 93.1784 68.3713 94.0464 68.3731 94.9154C68.3834 100.727 69.7473 106.621 72.4693 111.762C72.751 112.295 73.5332 111.824 73.2707 111.293C70.6986 106.091 70.2637 100.303 70.5501 94.5865C70.7332 90.9202 71.2318 87.3014 71.821 83.6937ZM29.6166 51.1129C31.8093 55.6765 35.581 59.4253 40.287 61.3756C46.1242 63.7927 53.1026 63.4877 58.5982 60.3086C61.0559 58.887 63.1364 57.0124 64.9533 54.8867C64.933 54.9346 64.9127 54.9825 64.8924 55.0303C62.2449 61.3013 60.7033 67.9134 59.4385 74.5919C58.6335 71.5864 57.4392 68.6924 55.8274 66.0134C55.6362 65.6948 55.182 65.9731 55.3362 66.3006C57.1938 70.2062 58.371 74.3819 58.6926 78.6793L58.6762 78.7715C58.1708 81.6259 57.6828 84.4838 57.1489 87.3332L57.1318 87.4243C56.8572 85.6133 56.4002 83.8112 55.7883 82.0291C53.9703 76.7308 51.0659 71.8951 47.9136 67.299C47.6999 66.9882 47.1952 67.2754 47.4032 67.5983C50.2973 72.108 52.7696 76.9316 54.1128 82.1481C55.447 87.3246 55.8079 93.1512 54.6324 98.3917C54.6075 98.5024 54.6021 98.606 54.6128 98.701C53.9603 101.021 53.1948 103.304 52.2566 105.506C51.581 107.092 50.7892 108.654 49.8449 110.101C50.7557 107.5 51.3548 104.777 51.7199 102.06C53.4161 89.4253 48.8511 76.6347 40.1719 67.4087C39.8068 67.02 39.2327 67.6019 39.5903 67.992C41.9144 70.5252 43.9283 73.3589 45.4481 76.4501C48.0971 81.8363 49.5917 87.8743 49.9404 93.8635C50.0921 96.4771 50.0878 99.095 49.82 101.699C49.3669 98.3403 48.2128 95.0329 46.9085 91.9596C44.3514 85.9333 40.9555 80.276 38.0244 74.4315C32.1117 62.6394 29.6166 51.1129 29.6166 51.1129ZM85.7618 64.5982C84.2199 70.6124 83.328 76.8516 83.843 83.0668C84.3207 88.8309 86.0215 94.1832 88.7303 99.27C89.1695 100.098 88.0297 100.724 87.4982 99.9919C84.0731 95.2694 82.5308 89.1556 82.2566 83.3911C81.9492 76.9469 83.1349 70.5306 85.0466 64.4003C85.189 63.9449 85.8822 64.1324 85.7618 64.5982ZM147.184 32.026C150.624 32.4032 154.036 33.2744 157.379 34.7832C158.699 35.379 159.984 36.0759 161.207 36.8682C161.667 37.105 162.123 37.3508 162.576 37.6048C165.483 39.2375 168.308 40.8313 171.674 41.2496C177.469 41.9701 183.149 39.6018 185.917 34.3021C188.26 29.8103 187.036 23.7483 182.609 21.0129C178.688 18.5897 172.613 20.087 170.976 24.6549C169.949 27.5182 171.017 31.3416 174.394 31.8792C175.52 32.0593 177.031 31.5902 177.471 30.4161C177.806 29.5199 176.994 28.3905 176.034 28.7269C174.235 29.3563 173.455 26.4855 175.249 25.8676C176.972 25.2739 178.808 26.1505 179.781 27.6211C180.756 29.0945 180.688 30.9934 179.675 32.4282C177.44 35.5894 173.039 35.3648 170.351 32.9626C167.468 30.3847 167.257 25.9244 169.05 22.6649C170.516 20.0038 173.363 18.1417 176.307 17.5599C179.502 16.9287 182.7 17.6477 185.262 19.6777C187.877 21.748 189.502 24.8974 189.91 28.1911C190.791 35.3126 185.059 41.7304 178.362 43.2053C174.507 44.0536 170.507 43.511 166.945 41.8876C168.276 43.4714 169.394 45.2306 170.23 47.1498C172.927 53.3429 173.102 60.6476 170.813 66.9968C168.773 72.6598 164.752 77.5742 159.083 79.8188C153.998 81.8309 147.731 81.4869 143.117 78.4361C137.851 74.9548 135.521 68.1473 137.324 62.1046C139.111 56.1141 145.051 51.6805 151.311 51.777C154.062 51.8202 156.788 52.7578 159.068 54.3345C157.083 50.9947 152.999 49.0326 149.392 48.0221C144.577 46.6737 139.442 46.7973 134.629 48.0817C124.587 50.7593 116.904 57.9715 111.621 66.7186C110.678 68.2788 109.816 69.8816 109.028 71.5186C110.664 69.5151 112.664 67.838 115.051 66.7436C119.575 64.67 125.252 64.9426 129.224 68.1081C133.576 71.5761 134.955 78.7097 130.201 82.4885C128.073 84.182 125.003 84.596 122.585 83.2551C120.322 82.0002 119.042 79.0787 119.909 76.5826C120.831 73.929 124.038 72.3694 126.639 73.5971C127.935 74.209 128.968 75.541 128.944 77.0202C128.918 78.6783 127.576 80.0013 125.949 80.0521C124.391 80.101 124.409 77.7242 125.949 77.6335C126.895 77.5785 126.27 76.3433 125.897 76.0425C125.297 75.5574 124.452 75.5499 123.754 75.8146C122.114 76.4397 121.675 78.2853 122.376 79.7974C123.24 81.6655 125.514 82.2799 127.371 81.6623C129.206 81.0536 130.483 79.3719 130.976 77.547C132.08 73.4528 129.112 69.4761 125.424 68.0295C121.941 66.6632 117.886 67.0472 114.615 68.8046C111.225 70.6267 108.622 73.5485 106.747 76.8719C106.004 78.8522 105.35 80.8675 104.774 82.9057C104.476 83.9623 102.842 83.5158 103.132 82.4517C106.017 71.8086 110.944 61.3427 119.43 54.0484C127.424 47.1784 138.773 43.4278 149.188 46.0739C154.082 47.3166 159.677 50.351 160.729 55.6715C162.458 57.2849 163.782 59.317 164.436 61.6088C166.054 67.2722 162.671 73.5707 157.312 75.7628C155.972 76.3122 154.545 76.5608 153.096 76.4936C151.688 76.4297 151.671 74.2554 153.096 74.2851C158.188 74.3894 162.556 69.6833 162.709 64.6825C162.875 59.2663 158.141 54.9635 153.088 54.0869C147.701 53.1507 142.103 56.5605 139.979 61.5195C137.798 66.6128 139.412 73.0735 143.92 76.3465C147.894 79.2323 153.273 79.6831 157.854 78.1325C161.524 76.8912 164.47 74.1715 166.504 70.8985C168.045 67.6258 168.545 63.822 168.12 60.2715C167.535 55.4014 165.101 50.9322 161.821 47.3602C159.929 45.3002 157.79 43.5768 155.364 42.1898C154.779 41.8547 155.299 40.9678 155.891 41.2864C160.502 43.7657 164.622 47.2366 167.24 51.8312C168.66 54.3252 169.568 57.0599 169.924 59.8668C170.165 56.3009 169.673 52.6817 168.424 49.3466C166.5 44.2151 162.479 40.2323 157.732 37.6515C146.299 31.4316 132.634 33.8935 120.822 37.653C119.163 38.1813 117.52 38.7646 115.868 39.3154C115.333 39.494 115.141 38.6888 115.64 38.4863C122.352 35.7584 129.499 33.2434 136.709 32.25C136.915 32.2118 137.122 32.1764 137.329 32.1439C137.936 31.8757 138.522 31.5602 139.083 31.1977C140.023 30.589 140.858 29.8568 141.588 29.0056C141.935 28.6037 142.26 28.184 142.554 27.7404C142.878 27.2506 143.104 26.6866 143.446 26.2162C143.783 25.7504 144.326 25.4961 144.887 25.7429C145.361 25.9515 145.776 26.5677 145.555 27.1078C145.055 28.3283 143.989 29.446 142.981 30.2779C142.344 30.8044 141.665 31.2845 140.951 31.7021C143.166 31.4427 145.393 31.1373 147.496 30.3633C151.683 28.8216 154.518 24.797 154.647 20.3292C154.769 16.12 152.082 11.81 148.15 10.2323C145.972 9.36001 143.387 9.23642 141.273 10.3559C139.439 11.326 138.15 13.2967 138.166 15.4027C138.183 17.4877 139.752 19.1576 141.809 19.3987C142.646 19.4969 143.526 19.308 144.15 18.7143C144.579 18.3064 145.123 17.0398 144.095 16.9105C143.31 16.8108 142.629 16.3047 142.629 15.4399C142.629 14.7212 143.304 13.8682 144.095 13.9679C147.44 14.389 148.654 18.0982 146.361 20.5492C144.536 22.5006 141.505 22.5571 139.313 21.219C134.397 18.2185 135.978 11.1178 140.757 8.88672C145.971 6.45206 152.116 9.31857 154.957 13.9857C157.893 18.8079 156.935 25.0307 152.91 28.9227C151.279 30.5011 149.305 31.4642 147.184 32.026ZM34.5873 30.793C33.7256 33.0169 33.368 35.4562 33.457 37.8326C33.6173 42.144 34.962 47.343 38.7019 49.9149C38.8918 50.0456 39.1276 49.7363 38.948 49.5948C35.5999 46.9887 34.7465 41.6993 34.8683 37.6941C34.8832 37.2047 34.9149 36.7171 34.9641 36.2328C35.1169 39.1725 36.2766 42.0033 38.1616 44.3222C40.8554 47.6335 44.8237 49.6623 48.9822 50.396C53.9275 51.2697 58.9808 50.4064 63.5877 48.4982C65.5271 47.6949 67.3458 46.7369 69.0897 45.6639C66.4258 47.7688 63.6657 49.7752 60.5434 51.1465C56.7635 52.8046 52.5309 53.4536 48.4686 52.6096C48.1124 52.5353 47.961 53.0682 48.3172 53.159C55.2682 54.9428 62.5594 52.4728 68.1594 48.1785C67.1018 49.9742 65.5154 51.2737 63.7615 52.4088C61.7608 53.7022 59.6265 54.8364 57.4435 55.7858C52.724 57.8368 47.3413 58.8548 42.4109 56.9095C42.0487 56.7667 41.7965 57.3828 42.1466 57.5361C47.2387 59.7728 53.015 59.4367 58.1113 57.3707C59.9902 56.6091 61.9635 55.6754 63.7637 54.5002C61.6828 56.652 59.3049 58.4762 56.5131 59.6878C51.1863 62.0007 44.7603 61.8771 39.5881 59.1967C34.7055 56.6666 31.0781 51.9977 29.6387 46.6976C29.1924 45.0566 28.9769 43.3514 28.9915 41.6482C29.0378 40.6792 29.1205 39.709 29.243 38.7389C29.6622 36.207 30.6051 33.767 32.069 31.6499C31.5315 32.7476 31.1198 33.9074 30.8309 35.0726C29.8514 39.0228 30.5264 42.8388 32.2838 46.4511C32.3208 46.5269 32.453 46.4718 32.4216 46.3929C31.0756 43.001 31.0742 38.9067 32.1634 35.4419C32.703 33.7299 33.56 32.2064 34.5873 30.793ZM33.4417 26.2208C37.2668 19.7248 43.4439 14.7644 51.3074 14.1604C56.4216 13.7657 61.7569 15.1516 65.5638 18.719C67.7009 20.7221 69.4003 23.3625 69.8676 26.2962C70.258 28.7519 69.5353 31.2702 68.2324 33.3491C65.5207 37.6744 60.0785 39.938 55.3117 37.649C50.9053 35.5334 47.9065 30.4269 48.8551 25.5279C48.9609 25.5036 49.0552 25.4557 49.1361 25.3914C49.7804 25.6165 50.4183 25.8654 51.0438 26.139C50.6698 26.9627 50.6036 27.9758 50.6876 28.8373C50.7443 29.4103 50.8689 29.97 51.0883 30.5026C51.3021 31.0219 51.6226 31.4581 51.9952 31.8749C52.2299 32.1382 52.6616 31.7946 52.4775 31.5013C51.9834 30.7169 51.7 29.7214 51.6896 28.7941C51.6836 28.3208 51.7459 27.8668 51.8898 27.416C51.9713 27.161 52.0832 26.9195 52.1968 26.6784C52.7486 26.9545 53.2864 27.2506 53.8061 27.5675C53.6087 27.8843 53.4737 28.2519 53.3804 28.5998C53.2572 29.0552 53.2141 29.5328 53.2529 30.0032C53.3345 30.9601 53.6697 31.8724 54.3019 32.6018C54.5662 32.9069 55.0812 32.5022 54.8572 32.1718C54.4209 31.5274 54.2264 30.7801 54.2948 30.0032C54.3243 29.6639 54.4283 29.2681 54.5619 28.9255C54.568 28.9102 54.5712 28.9009 54.5726 28.8966C54.5815 28.8677 54.5145 29.0231 54.5915 28.8555L54.8005 28.4687C54.8372 28.4098 54.8764 28.353 54.916 28.2965C55.4367 28.6637 55.9567 29.0656 56.4597 29.4992C56.4187 29.5992 56.3724 29.7103 56.3407 29.8075C56.2859 29.9804 56.2442 30.1575 56.2146 30.3343C56.1566 30.6901 56.112 31.0534 56.1238 31.4149C56.1462 32.1532 56.3571 32.8826 56.7517 33.5077C57.0264 33.9438 57.7074 33.5477 57.4417 33.1026C57.1375 32.5908 56.9786 32.0117 56.9743 31.4149C56.9729 31.1262 57.0011 30.8508 57.0855 30.5772C57.1204 30.4647 57.1688 30.3272 57.2244 30.1975C58.5284 31.4602 59.6418 32.9419 60.2374 34.5764C60.3499 34.8904 60.8219 34.7686 60.7403 34.4382C59.9628 31.2977 58.3749 28.6916 55.7391 26.7909C53.6832 25.3093 51.4424 24.4752 49.0695 23.9894C49.0143 23.9601 48.9527 23.9358 48.8846 23.9173C44.1673 22.6403 39.2344 23.7194 35.3516 26.4227C39.4489 21.2765 44.9509 16.5593 51.8762 18.051C52.3703 18.1567 52.5797 17.4141 52.0853 17.2891C48.096 16.2711 43.8442 17.3634 40.4337 19.5648C37.6971 21.3304 35.4638 23.6915 33.4417 26.2208Z" stroke="black" stroke-width="0.6" stroke-miterlimit="2" stroke-linejoin="round"/>
<path d="M913.654 524.506C913.377 524.42 913.102 524.329 912.829 524.235C912.784 524.176 912.717 524.128 912.625 524.101C912.306 524.007 911.989 523.909 911.672 523.806C910.802 523.464 909.955 523.086 909.143 522.691C906.77 521.537 904.477 520.224 902.114 519.055C900.795 518.106 899.549 517.05 898.393 515.883C894.54 511.99 891.537 506.877 890.607 501.435C889.725 496.28 890.658 489.786 895.417 486.751C897.67 485.315 900.513 484.862 902.984 486.028C905.427 487.184 907.354 489.56 907.581 492.312C907.8 494.956 905.908 497.822 903.102 497.999C903.021 498.004 902.94 498.006 902.859 498.005C902.255 497.855 901.663 497.631 901.097 497.323C900.958 497.247 900.821 497.205 900.689 497.189C899.578 496.29 898.946 494.781 899.41 493.357C899.852 492 897.822 491.509 897.318 492.778C896.285 495.38 897.825 498.406 900.248 499.592C901.004 499.963 901.791 500.142 902.571 500.157C905.005 500.712 907.614 500.273 909.882 499.126C913.107 497.497 915.323 494.488 916.432 491.093C918.652 484.301 915.317 477.259 909.14 473.984C906.165 472.409 902.806 471.702 899.456 472.117C895.942 472.549 892.677 474.16 889.982 476.43C884.004 481.465 881.725 489.499 882.791 497.096C883.457 501.849 885.375 506.104 888.08 509.842C886.774 508.722 885.507 507.559 884.36 506.266C881.77 503.345 879.786 499.88 878.589 496.161C876.307 489.071 877.374 481.179 882.379 475.505C885.067 472.46 888.638 470.271 892.667 469.617C893.01 469.561 892.933 468.957 892.584 469.002C885.122 469.972 879.061 475.613 876.504 482.567C873.58 490.518 875.942 499.632 880.964 506.195C882.021 507.576 883.202 508.824 884.451 510.001C876.492 505.16 867.576 501.744 858.219 503.085C855.603 503.461 852.365 504.108 850.976 506.65C849.7 508.984 850.802 511.52 853.169 512.536C854.548 513.127 856.063 513.088 857.525 512.917C859.002 512.743 860.474 512.544 861.956 512.403C864.944 512.114 867.949 511.96 870.953 512.023C875.83 512.127 880.77 512.838 885.392 514.452C884.01 514.306 882.62 514.221 881.232 514.187C874.902 514.033 868.407 514.658 862.247 516.131C856.284 517.556 850.434 519.947 845.524 523.674C841.035 527.083 837.425 531.422 834.735 536.373C831.679 541.999 829.988 548.298 830 554.712C830.003 556.069 832.094 556.07 832.104 554.712C832.178 543.914 837.084 533.501 845.346 526.573C852.876 520.258 862.747 517.654 872.466 516.66C868.705 517.769 865.096 519.391 861.783 521.49C852.466 527.395 846.135 536.948 844.123 547.8C842.122 558.591 844.156 570.286 850.634 579.254C851.436 580.366 852.276 581.447 853.178 582.481C853.27 582.586 853.368 582.663 853.47 582.714C855.072 584.565 857.014 586.122 859.21 587.182C862.916 588.971 867.21 589.467 871.226 588.548C875.06 587.668 878.453 585.414 880.634 582.122C882.711 578.989 883.61 575.065 883.099 571.341C882.589 567.636 880.561 564.342 877.426 562.291C874.429 560.331 870.695 559.628 867.189 560.273C865.529 560.577 863.955 561.273 862.588 562.257C862.516 562.308 862.453 562.363 862.399 562.422C860.994 562.296 859.508 562.865 858.381 563.682C855.795 565.558 854.723 568.993 854.619 572.073C854.613 572.261 854.705 572.402 854.835 572.487C854.879 572.723 855.078 572.919 855.367 572.814C857.557 572.02 860.025 572.467 861.894 573.744C862.743 574.325 863.511 575.146 863.991 576.131C864.376 576.923 864.561 578.12 863.965 578.862C863.834 579.025 863.741 579.21 863.703 579.401C861.123 580.289 858.08 579.912 855.686 578.605C853.747 577.546 852.492 575.961 851.513 574.15C849.079 565.877 852.575 557.086 858.784 551.433C863.991 546.691 870.754 544.143 877.638 542.842C874.488 543.994 871.522 545.59 869.174 547.993C867.159 550.055 865.641 552.725 865.262 555.609C865.141 556.532 866.629 556.695 866.858 555.827C868.184 550.765 871.965 547.19 876.589 544.99C879.606 543.554 882.878 542.535 886.204 541.785C895.34 541.14 904.555 541.657 913.638 540.332C913.98 540.282 914.322 540.229 914.664 540.172C912.414 541.08 910.203 542.07 908.106 543.327C901.261 547.427 895.692 554.217 894.816 562.36C894.407 566.151 895.104 570.18 897.204 573.402C899.121 576.347 902.106 578.653 905.676 579.003C908.932 579.323 912.364 577.89 914.577 575.505C917.094 572.789 917.902 568.75 916.554 565.28C915.04 561.386 910.843 558.926 906.704 559.813C902.747 560.661 900.059 564.963 901.205 568.886C901.493 569.867 902.999 569.69 902.999 568.642C902.996 566.804 904.699 565.587 906.412 565.387C908.418 565.153 910.048 566.531 910.69 568.365C911.721 571.312 910.336 573.789 908.106 575.301C906.883 576.131 905.406 576.671 903.934 576.838C897.665 574.427 895.937 566.401 897.224 560.467C898.768 553.34 903.949 547.975 910.057 544.374C912.37 543.009 914.883 541.94 917.395 540.865C916.589 541.639 915.879 542.515 915.302 543.495C913.661 546.281 913.365 549.835 914.683 552.806C915.827 555.387 918.83 557.761 921.566 555.761C922.858 554.817 923.264 553.006 922.384 551.635C921.484 550.236 920.086 549.325 919.42 547.751C918.16 544.779 919.158 541.306 921.373 539.1C923.591 538.047 925.722 536.86 927.616 535.315C930.614 533.224 933.137 530.432 934.819 527.174C936.688 523.551 937.464 519.424 936.721 515.393C936.028 511.642 933.981 507.958 931.038 505.516C928.057 503.044 924.289 501.743 920.419 502.225C916.788 502.676 913.248 504.482 910.942 507.369C908.603 510.302 907.635 514.162 908.767 517.802C909.591 520.451 911.333 522.927 913.654 524.506ZM854.037 552.907C859.072 546.562 866.604 542.763 874.389 540.825C884.164 538.39 894.326 538.757 904.314 538.46C913.205 538.194 923.332 537.439 929.746 530.448C932.447 527.505 934.276 523.623 934.475 519.601C934.52 518.692 934.478 517.781 934.352 516.883C933.728 521.724 930.526 526.262 926.569 529.053C920.116 533.605 911.765 534.413 904.143 533.316C903.683 533.251 903.795 532.46 904.253 532.505C908.515 532.935 912.75 532.431 916.863 531.272C921.604 529.936 926.323 527.385 929.187 523.36C925.644 527.437 919.564 528.17 914.541 527.044C908.02 525.58 902.549 521.336 896.252 519.244C885.783 515.763 873.998 517.197 864.391 522.514C859.626 525.152 855.363 528.778 852.19 533.228C849.836 536.528 848.116 540.218 846.999 544.094C850.013 537.726 854.882 532.08 860.912 528.438C868.444 523.887 877.338 522.712 885.952 522.065C886.522 522.022 886.505 522.889 885.952 522.946C881.08 523.45 876.241 524.241 871.57 525.751C864.418 528.06 858.164 532.212 853.483 538.122C849.115 543.637 846.48 550.412 845.931 557.424C845.903 557.779 845.756 558.054 845.547 558.248C845.734 560.875 846.167 563.496 846.839 566.049C846.572 563.113 846.641 560.143 847.011 557.231C847.544 553.046 848.657 548.912 850.637 545.171C852.7 541.271 855.755 538.233 859.364 535.748C867.102 530.42 876.734 528.277 886.031 528.99C886.653 529.038 886.665 530.003 886.031 529.97C880.935 529.709 875.826 530.346 870.967 531.913C862.995 534.484 855.463 539.555 851.871 547.347C850.165 551.045 849.278 555.074 849.049 559.156C849.067 559.098 849.086 559.04 849.104 558.982C851.261 552.215 855.305 546.045 860.891 541.637C866.29 537.377 872.845 534.754 879.655 533.934C880.271 533.86 880.408 534.928 879.801 535.02C876.119 535.566 872.566 536.691 869.246 538.384C863.366 541.384 858.28 545.978 854.801 551.608C854.536 552.036 854.282 552.469 854.037 552.907ZM879.555 509.459C878.009 508.739 876.437 508.071 874.828 507.481C869.399 505.487 863.417 504.386 857.643 505.206C856.351 505.39 854.971 505.62 853.83 506.288C852.803 506.891 851.824 508.113 852.253 509.377C853.194 512.152 857.38 511.142 859.447 510.858C865.185 510.068 871.17 509.652 876.971 510.305C871.951 508.88 866.745 508.144 861.514 508.301C861.065 508.314 861.077 507.641 861.514 507.61C867.608 507.17 873.733 507.724 879.555 509.459ZM866.672 577.542C866.744 577.469 866.813 577.395 866.882 577.318C870.451 573.344 868.613 566.554 863.7 564.72C863.361 564.693 863.007 564.723 862.633 564.818C861.494 565.106 860.527 565.177 859.477 565.864C857.466 567.179 856.401 569.293 855.8 571.545C856.691 571.099 857.684 570.838 858.671 570.778C861.001 570.637 863.507 571.6 865.048 573.376C865.989 574.461 866.699 576.06 866.672 577.542ZM857.22 583.03C857.587 583.335 857.968 583.623 858.364 583.893C861.592 586.099 865.68 587.04 869.544 586.383C873.3 585.746 876.695 583.719 878.681 580.411C880.51 577.37 881.129 573.593 880.131 570.164C878.602 564.904 872.838 561.667 867.651 562.587C869.771 562.882 871.782 563.813 873.42 565.333C875.892 567.627 877.366 571.279 877.373 574.627C877.375 575.29 876.372 575.286 876.349 574.627C876.244 571.433 874.774 568.627 872.181 566.769C870.579 565.621 868.649 564.875 866.669 564.576C866.675 564.591 866.68 564.606 866.686 564.621C868.842 566.037 870.325 568.465 870.706 571.052C871.124 573.891 870.199 576.964 868.231 579.06C866.562 580.838 864.227 581.805 861.836 582.064C862.324 582.164 862.821 582.241 863.329 582.292C866.363 582.594 869.501 582.039 872.087 580.37C872.617 580.027 873.082 580.855 872.576 581.208C868.137 584.297 862.289 584.772 857.22 583.03ZM909.844 496.843C910.123 496.684 910.394 496.513 910.657 496.332C913.664 494.254 915.419 490.657 915.576 487.042C915.855 480.646 910.969 475.365 904.944 473.937C898.746 472.468 892.226 475.679 888.483 480.609C885.428 484.635 884.277 489.679 884.584 494.651C884.704 491.835 885.263 489.042 886.315 486.409C887.25 484.07 888.565 481.887 890.532 480.278C892.491 478.677 894.813 477.678 897.111 476.675C897.476 476.515 897.802 477.033 897.431 477.223C894.739 478.611 891.874 480.12 890.038 482.619C888.219 485.097 887.476 488.267 887.082 491.265C886.567 495.167 886.932 499.14 888.084 502.879C887.095 497.357 887.699 491.529 890.192 486.474C891.467 483.887 893.377 481.767 896.038 480.587C898.458 479.515 901.205 479.252 903.765 479.944C904.243 480.074 904.041 480.797 903.561 480.687C900.68 480.023 897.681 480.665 895.284 482.389C893.199 483.89 892.034 486.143 891.219 488.513C891.699 487.818 892.249 487.171 892.873 486.591C895.074 484.545 898.126 483.3 901.147 483.731C906.42 484.486 910.762 490.518 908.909 495.551C909.17 495.318 909.42 495.066 909.655 494.783C910.391 493.894 910.958 492.833 911.338 491.743C912.135 489.459 912.132 486.923 911.065 484.726C910.817 484.215 911.558 483.767 911.834 484.277C913.126 486.66 913.351 489.498 912.63 492.1C912.269 493.403 911.656 494.625 910.835 495.697C910.541 496.083 910.209 496.477 909.844 496.843ZM890.726 515.344C889.875 514.632 889.014 513.931 888.159 513.224C887.224 512.81 886.275 512.442 885.314 512.117C885.304 512.197 885.28 512.276 885.245 512.353C887.032 513.322 888.805 514.321 890.582 515.311C890.63 515.322 890.678 515.333 890.726 515.344ZM894.021 514.775C893.994 514.724 890.608 507.754 890.606 507.751C888.819 503.395 887.892 506.804 888.819 508.577C889.583 510.462 895.481 516.67 894.021 514.775ZM898.517 531.449C897.104 531.053 895.702 530.625 894.299 530.196C893.649 529.999 893.364 531.072 894.021 531.209C895.458 531.507 896.896 531.806 898.327 532.137C898.773 532.24 898.96 531.573 898.517 531.449ZM907.204 528.677C903.113 527.251 899.145 525.496 895.088 523.979C894.225 523.656 893.864 525.027 894.709 525.356C898.74 526.919 902.911 528.011 907.056 529.215C907.404 529.315 907.539 528.794 907.204 528.677ZM907.215 577.386C906.266 577.431 917.899 575.729 914.745 566.344C913.751 563.386 910.471 561.541 907.375 562.252C905.929 562.583 904.521 564.155 904.944 564.032C908.968 562.874 912.433 566.593 912.317 570.471C912.22 573.704 910.007 576.163 907.215 577.386ZM931.19 519.408L931.199 519.381C932.455 515.52 931.771 510.959 929.319 507.751C927.059 505.863 924.257 504.761 921.236 504.969C917.963 505.194 914.662 506.949 912.743 509.636C910.689 512.511 910.572 516.102 912.275 519.181C912.991 520.477 913.979 521.645 915.152 522.552C913.394 520.766 912.34 518.356 912.568 515.684C912.744 513.607 913.66 511.697 915.365 510.462C916.897 509.353 918.83 508.813 920.702 509.114C921.03 509.167 920.95 509.735 920.624 509.696C916.918 509.234 914.038 512.47 914.056 516.051C914.072 519.161 916.08 521.715 918.717 523.11C918.665 523.008 918.616 522.906 918.57 522.804C916.547 518.313 919.202 512.249 924.516 512.324C926.851 512.357 929.116 513.515 930.42 515.475C931.244 516.712 931.43 518.08 931.19 519.408ZM917.899 542.825C917.985 542.462 916.684 543.988 916.241 545.291C915.377 547.837 915.338 551.374 917.368 553.422C918.083 554.143 919.374 554.677 920.186 553.788C920.975 552.925 919.854 551.43 919.398 550.674C918.012 548.37 917.272 545.488 917.899 542.825ZM921.667 525.262C922.951 525.037 924.207 524.609 925.404 523.924C927.467 522.743 929.754 520.201 929.032 517.625C928.495 515.71 926.297 514.479 924.415 514.355C919.182 514.012 918.456 521.272 921.126 524.488C921.46 524.589 921.651 524.925 921.667 525.262Z" stroke="black" stroke-width="0.6" stroke-miterlimit="2" stroke-linejoin="round"/>
<path d="M33.3463 524.506C33.6229 524.42 33.8981 524.329 34.1713 524.235C34.2164 524.176 34.2834 524.128 34.3747 524.101C34.6937 524.007 35.0113 523.909 35.3279 523.806C36.1984 523.464 37.0446 523.086 37.8566 522.691C40.2301 521.537 42.5226 520.224 44.8858 519.055C46.2049 518.106 47.4515 517.05 48.6067 515.883C52.46 511.99 55.4633 506.877 56.3932 501.435C57.2753 496.28 56.3419 489.786 51.5827 486.751C49.3302 485.315 46.4869 484.862 44.0163 486.028C41.5735 487.184 39.6458 489.56 39.4195 492.312C39.2 494.956 41.0917 497.822 43.8984 497.999C43.9794 498.004 44.0601 498.006 44.1408 498.005C44.7453 497.855 45.3368 497.631 45.9033 497.323C46.0421 497.247 46.1789 497.205 46.3105 497.189C47.4224 496.29 48.0536 494.781 47.5896 493.357C47.1479 492 49.1777 491.509 49.682 492.778C50.7149 495.38 49.175 498.406 46.7519 499.592C45.9956 499.963 45.2086 500.142 44.4287 500.157C41.9947 500.712 39.3863 500.273 37.1178 499.126C33.8926 497.497 31.6774 494.488 30.5676 491.093C28.348 484.301 31.6832 477.259 37.8601 473.984C40.8346 472.409 44.1938 471.702 47.5445 472.117C51.0575 472.549 54.3227 474.16 57.0182 476.43C62.9957 481.465 65.2752 489.499 64.2095 497.096C63.5431 501.849 61.6247 506.104 58.9202 509.842C60.226 508.722 61.4931 507.559 62.6398 506.266C65.2297 503.345 67.2141 499.88 68.4108 496.161C70.693 489.071 69.6259 481.179 64.6215 475.505C61.9331 472.46 58.3619 470.271 54.3329 469.617C53.9897 469.561 54.0666 468.957 54.4157 469.002C61.8777 469.972 67.9393 475.613 70.4964 482.567C73.4197 490.518 71.0578 499.632 66.0359 506.195C64.9791 507.576 63.7978 508.824 62.5492 510.001C70.5083 505.16 79.4245 501.744 88.781 503.085C91.3966 503.461 94.6347 504.108 96.0239 506.65C97.3002 508.984 96.1976 511.52 93.8312 512.536C92.4524 513.127 90.9367 513.088 89.4751 512.917C87.9977 512.743 86.5261 512.544 85.0443 512.403C82.0558 512.114 79.0511 511.96 76.0468 512.023C71.1696 512.127 66.2298 512.838 61.6076 514.452C62.9903 514.306 64.3797 514.221 65.7675 514.187C72.0982 514.033 78.593 514.658 84.753 516.131C90.7162 517.556 96.5658 519.947 101.476 523.674C105.965 527.083 109.575 531.422 112.265 536.373C115.321 541.999 117.012 548.298 117 554.712C116.997 556.069 114.906 556.07 114.896 554.712C114.822 543.914 109.916 533.501 101.654 526.573C94.1236 520.258 84.2528 517.654 74.5339 516.66C78.2948 517.769 81.9043 519.391 85.2173 521.49C94.5342 527.395 100.865 536.948 102.877 547.8C104.878 558.591 102.844 570.286 96.3661 579.254C95.564 580.366 94.7236 581.447 93.8217 582.481C93.73 582.586 93.6316 582.663 93.5304 582.714C91.9282 584.565 89.9855 586.122 87.7905 587.182C84.0836 588.971 79.79 589.467 75.774 588.548C71.9402 587.668 68.5469 585.414 66.3659 582.122C64.2888 578.989 63.3899 575.065 63.9014 571.341C64.4112 567.636 66.4387 564.342 69.5739 562.291C72.5714 560.331 76.3053 559.628 79.8112 560.273C81.4708 560.577 83.0449 561.273 84.4125 562.257C84.4836 562.308 84.5465 562.363 84.6012 562.422C86.0061 562.296 87.492 562.865 88.6186 563.682C91.2054 565.558 92.277 568.993 92.3809 572.073C92.3867 572.261 92.2954 572.402 92.1648 572.487C92.121 572.723 91.9217 572.919 91.6335 572.814C89.4426 572.02 86.9751 572.467 85.1062 573.744C84.2569 574.325 83.4894 575.146 83.009 576.131C82.6244 576.923 82.4394 578.12 83.0346 578.862C83.1659 579.025 83.2589 579.21 83.2969 579.401C85.8772 580.289 88.9198 579.912 91.3138 578.605C93.2531 577.546 94.5075 575.961 95.4871 574.15C97.9214 565.877 94.4251 557.086 88.2162 551.433C83.009 546.691 76.2462 544.143 69.3623 542.842C72.5116 543.994 75.4776 545.59 77.8261 547.993C79.8406 550.055 81.3593 552.725 81.7381 555.609C81.8592 556.532 80.3705 556.695 80.1425 555.827C78.8163 550.765 75.0355 547.19 70.4112 544.99C67.3936 543.554 64.1216 542.535 60.7959 541.785C51.6596 541.14 42.445 541.657 33.3623 540.332C33.0204 540.282 32.6782 540.229 32.3359 540.172C34.5863 541.08 36.7967 542.07 38.894 543.327C45.7389 547.427 51.3078 554.217 52.1837 562.36C52.5926 566.151 51.8962 570.18 49.7962 573.402C47.8788 576.347 44.8944 578.653 41.3242 579.003C38.0676 579.323 34.6356 577.89 32.4235 575.505C29.906 572.789 29.0985 568.75 30.4459 565.28C31.9602 561.386 36.157 558.926 40.2958 559.813C44.2533 560.661 46.9413 564.963 45.7946 568.886C45.5067 569.867 44.001 569.69 44.001 568.642C44.0037 566.804 42.3014 565.587 40.5878 565.387C38.5818 565.153 36.952 566.531 36.3095 568.365C35.2787 571.312 36.6644 573.789 38.894 575.301C40.1169 576.131 41.5943 576.671 43.0655 576.838C49.335 574.427 51.0626 566.401 49.7764 560.467C48.232 553.34 43.0508 547.975 36.9434 544.374C34.6301 543.009 32.1168 541.94 29.6048 540.865C30.4114 541.639 31.1208 542.515 31.6976 543.495C33.3387 546.281 33.6352 549.835 32.3175 552.806C31.1735 555.387 28.1702 557.761 25.4336 555.761C24.1415 554.817 23.7357 553.006 24.6161 551.635C25.5163 550.236 26.9137 549.325 27.5804 547.751C28.84 544.779 27.842 541.306 25.6268 539.1C23.4089 538.047 21.2785 536.86 19.3843 535.315C16.3858 533.224 13.8633 530.432 12.1814 527.174C10.3123 523.551 9.53581 519.424 10.2794 515.393C10.9718 511.642 13.0191 507.958 15.9622 505.516C18.9426 503.044 22.7107 501.743 26.581 502.225C30.2124 502.676 33.7524 504.482 36.0575 507.369C38.3968 510.302 39.3655 514.162 38.2331 517.802C37.4094 520.451 35.6674 522.927 33.3463 524.506ZM92.9628 552.907C87.9279 546.562 80.3962 542.763 72.6114 540.825C62.8357 538.39 52.674 538.757 42.6864 538.46C33.7952 538.194 23.668 537.439 17.2543 530.448C14.5532 527.505 12.724 523.623 12.5247 519.601C12.4796 518.692 12.5223 517.781 12.6482 516.883C13.2721 521.724 16.4744 526.262 20.4309 529.053C26.8843 533.605 35.2353 534.413 42.857 533.316C43.3172 533.251 43.2047 532.46 42.7472 532.505C38.4847 532.935 34.2496 532.431 30.1368 531.272C25.396 529.936 20.6767 527.385 17.8126 523.36C21.3561 527.437 27.4365 528.17 32.4587 527.044C38.9805 525.58 44.4509 521.336 50.7477 519.244C61.2171 515.763 73.0015 517.197 82.609 522.514C87.3741 525.152 91.6366 528.778 94.8105 533.228C97.1645 536.528 98.8842 540.218 100.001 544.094C96.9873 537.726 92.1183 532.08 86.0878 528.438C78.5561 523.887 69.6621 522.712 61.0476 522.065C60.478 522.022 60.4951 522.889 61.0476 522.946C65.9197 523.45 70.7593 524.241 75.4304 525.751C82.582 528.06 88.8357 532.212 93.517 538.122C97.8848 543.637 100.52 550.412 101.069 557.424C101.097 557.779 101.244 558.054 101.453 558.248C101.266 560.875 100.833 563.496 100.161 566.049C100.428 563.113 100.359 560.143 99.9889 557.231C99.4562 553.046 98.3433 548.912 96.3634 545.171C94.3003 541.271 91.2447 538.233 87.6363 535.748C79.8977 530.42 70.2663 528.277 60.9693 528.99C60.3467 529.038 60.3354 530.003 60.9693 529.97C66.065 529.709 71.1737 530.346 76.0328 531.913C84.005 534.484 91.5367 539.555 95.1295 547.347C96.8345 551.045 97.7224 555.074 97.9508 559.156C97.9327 559.098 97.9142 559.04 97.8958 558.982C95.7391 552.215 91.6947 546.045 86.1087 541.637C80.7097 537.377 74.1551 534.754 67.3454 533.934C66.7286 533.86 66.5918 534.928 67.1987 535.02C70.8814 535.566 74.4341 536.691 77.7536 538.384C83.6343 541.384 88.7201 545.978 92.199 551.608C92.4636 552.036 92.718 552.469 92.9628 552.907ZM67.4446 509.459C68.9913 508.739 70.5627 508.071 72.1717 507.481C77.6008 505.487 83.5827 504.386 89.3568 505.206C90.6488 505.39 92.0291 505.62 93.1703 506.288C94.1974 506.891 95.1763 508.113 94.7472 509.377C93.8056 512.152 89.6204 511.142 87.5532 510.858C81.8147 510.068 75.8301 509.652 70.029 510.305C75.0492 508.88 80.2553 508.144 85.4861 508.301C85.9347 508.314 85.9234 507.641 85.4861 507.61C79.3923 507.17 73.2672 507.724 67.4446 509.459ZM80.3278 577.542C80.2563 577.469 80.1866 577.395 80.1179 577.318C76.5494 573.344 78.3875 566.554 83.2996 564.72C83.6395 564.693 83.9933 564.723 84.3674 564.818C85.5056 565.106 86.4732 565.177 87.5228 565.864C89.5335 567.179 90.5992 569.293 91.1996 571.545C90.309 571.099 89.3164 570.838 88.3287 570.778C85.9993 570.637 83.4935 571.6 81.9522 573.376C81.0109 574.461 80.3015 576.06 80.3278 577.542ZM89.7804 583.03C89.4132 583.335 89.0316 583.623 88.6364 583.893C85.4085 586.099 81.3196 587.04 77.4561 586.383C73.6997 585.746 70.3049 583.719 68.3188 580.411C66.4896 577.37 65.8715 573.593 66.8688 570.164C68.3981 564.904 74.1619 561.667 79.3493 562.587C77.2291 562.882 75.2181 563.813 73.58 565.333C71.108 567.627 69.6338 571.279 69.6266 574.627C69.6252 575.29 70.628 575.286 70.6509 574.627C70.7562 571.433 72.2264 568.627 74.8194 566.769C76.4209 565.621 78.3513 564.875 80.3312 564.576C80.3251 564.591 80.3196 564.606 80.3145 564.621C78.1581 566.037 76.6753 568.465 76.2944 571.052C75.8755 573.891 76.8014 576.964 78.7687 579.06C80.4379 580.838 82.7727 581.805 85.1644 582.064C84.6758 582.164 84.1786 582.241 83.6713 582.292C80.6369 582.594 77.4986 582.039 74.9127 580.37C74.3828 580.027 73.9185 580.855 74.4242 581.208C78.8631 584.297 84.7106 584.772 89.7804 583.03ZM37.1564 496.843C36.8771 496.684 36.6056 496.513 36.343 496.332C33.3357 494.254 31.5807 490.657 31.4237 487.042C31.1447 480.646 36.0309 475.365 42.0555 473.937C48.2539 472.468 54.7743 475.679 58.5168 480.609C61.5724 484.635 62.7225 489.679 62.4162 494.651C62.2958 491.835 61.7372 489.042 60.6848 486.409C59.7504 484.07 58.4354 481.887 56.4681 480.278C54.5093 478.677 52.1871 477.678 49.8892 476.675C49.5244 476.515 49.1982 477.033 49.5688 477.223C52.2613 478.611 55.1261 480.12 56.9625 482.619C58.7814 485.097 59.5237 488.267 59.9182 491.265C60.4332 495.167 60.0677 499.14 58.9158 502.879C59.9046 497.357 59.3011 491.529 56.8076 486.474C55.5327 483.887 53.6235 481.767 50.9625 480.587C48.5421 479.515 45.7953 479.252 43.2354 479.944C42.7568 480.074 42.9592 480.797 43.4392 480.687C46.3198 480.023 49.3186 480.665 51.716 482.389C53.8013 483.89 54.9665 486.143 55.7809 488.513C55.3008 487.818 54.7507 487.171 54.1268 486.591C51.9259 484.545 48.8745 483.3 45.8527 483.731C40.5799 484.486 36.2384 490.518 38.0905 495.551C37.8296 495.318 37.5797 495.066 37.3455 494.783C36.609 493.894 36.0422 492.833 35.6616 491.743C34.8653 489.459 34.8681 486.923 35.9351 484.726C36.183 484.215 35.4425 483.767 35.1659 484.277C33.8738 486.66 33.6488 489.498 34.3696 492.1C34.7313 493.403 35.344 494.625 36.1646 495.697C36.4589 496.083 36.7913 496.477 37.1564 496.843ZM56.2742 515.344C57.1252 514.632 57.9858 513.931 58.8409 513.224C59.7757 512.81 60.7248 512.442 61.6855 512.117C61.6958 512.197 61.7197 512.276 61.755 512.353C59.9678 513.322 58.1954 514.321 56.4182 515.311C56.3703 515.322 56.3224 515.333 56.2742 515.344ZM52.9793 514.775C53.0057 514.724 56.3915 507.754 56.3936 507.751C58.1814 503.395 59.1083 506.804 58.1814 508.577C57.4172 510.462 51.5191 516.67 52.9793 514.775ZM48.4833 531.449C49.8964 531.053 51.2982 530.625 52.7014 530.196C53.351 529.999 53.6358 531.072 52.9793 531.209C51.5416 531.507 50.1043 531.806 48.6727 532.137C48.2269 532.24 48.0402 531.573 48.4833 531.449ZM39.7956 528.677C43.8871 527.251 47.8546 525.496 51.9119 523.979C52.7752 523.656 53.1356 525.027 52.2908 525.356C48.2604 526.919 44.0892 528.011 39.9436 529.215C39.5962 529.315 39.4608 528.794 39.7956 528.677ZM39.7846 577.386C40.7344 577.431 29.1005 575.729 32.2552 566.344C33.2495 563.386 36.529 561.541 39.6246 562.252C41.0712 562.583 42.4792 564.155 42.0555 564.032C38.0324 562.874 34.5672 566.593 34.6828 570.471C34.7795 573.704 36.993 576.163 39.7846 577.386ZM15.8097 519.408L15.8008 519.381C14.545 515.52 15.2292 510.959 17.6806 507.751C19.9413 505.863 22.7428 504.761 25.7635 504.969C29.0373 505.194 32.338 506.949 34.2567 509.636C36.3112 512.511 36.4278 516.102 34.7255 519.181C34.0092 520.477 33.0208 521.645 31.8484 522.552C33.6061 520.766 34.6602 518.356 34.4325 515.684C34.2557 513.607 33.3398 511.697 31.6347 510.462C30.103 509.353 28.1699 508.813 26.2979 509.114C25.9704 509.167 26.05 509.735 26.3762 509.696C30.0818 509.234 32.9623 512.47 32.9438 516.051C32.9278 519.161 30.9201 521.715 28.2827 523.11C28.3346 523.008 28.3839 522.906 28.43 522.804C30.4531 518.313 27.7975 512.249 22.4837 512.324C20.1488 512.357 17.8837 513.515 16.5804 515.475C15.7557 516.712 15.57 518.08 15.8097 519.408ZM29.1005 542.825C29.015 542.462 30.3156 543.988 30.7587 545.291C31.6234 547.837 31.662 551.374 29.6318 553.422C28.9169 554.143 27.6262 554.677 26.8142 553.788C26.0247 552.925 27.1462 551.43 27.6019 550.674C28.988 548.37 29.7276 545.488 29.1005 542.825ZM25.3327 525.262C24.0486 525.037 22.7931 524.609 21.5964 523.924C19.5334 522.743 17.2457 520.201 17.9678 517.625C18.5049 515.71 20.703 514.479 22.5849 514.355C27.818 514.012 28.5436 521.272 25.8736 524.488C25.5403 524.589 25.3492 524.925 25.3327 525.262Z" stroke="black" stroke-width="0.6" stroke-miterlimit="2" stroke-linejoin="round"/>
</svg>
